<svg width="30" height="16" viewBox="0 0 30 16" fill="none" xmlns="http://www.w3.org/2000/svg">
<path d="M15.0002 0.200012C7.00222 0.200012 0.744319 7.60978 0.744319 7.60978C0.651248 7.71849 0.600098 7.8569 0.600098 8.00001C0.600098 8.14313 0.651248 8.28153 0.744319 8.39025C0.744319 8.39025 7.00222 15.8 15.0002 15.8C22.9981 15.8 29.256 8.39025 29.256 8.39025C29.3491 8.28153 29.4003 8.14313 29.4003 8.00001C29.4003 7.8569 29.3491 7.71849 29.256 7.60978C29.256 7.60978 22.9981 0.200012 15.0002 0.200012ZM15.0002 1.40001C16.5998 1.40001 18.1275 1.73191 19.5412 2.24259C20.4842 3.32498 21.0002 4.63623 21.0002 6.20001C21.0002 9.5387 18.3389 12.2 15.0002 12.2C11.6615 12.2 9.00018 9.5387 9.00018 6.20001C9.00018 4.7178 9.57228 3.32935 10.4662 2.24025C11.878 1.731 13.4031 1.40001 15.0002 1.40001ZM8.51619 3.08634C8.06543 4.03545 7.80018 5.09047 7.80018 6.20001C7.80018 10.1813 11.0189 13.4 15.0002 13.4C18.9815 13.4 22.2002 10.1813 22.2002 6.20001C22.2002 5.08031 21.9601 4.04041 21.5217 3.10509C24.9172 4.83176 27.3522 7.33831 27.9635 8.00001C27.0068 9.03558 21.5955 14.6 15.0002 14.6C8.40488 14.6 2.99351 9.03558 2.0369 8.00001C2.65037 7.3359 5.10119 4.81353 8.51619 3.08634ZM15.0002 3.20001C14.2045 3.20001 13.4415 3.51608 12.8789 4.07869C12.3162 4.6413 12.0002 5.40436 12.0002 6.20001C12.0002 6.99566 12.3162 7.75872 12.8789 8.32133C13.4415 8.88394 14.2045 9.20001 15.0002 9.20001C15.7958 9.20001 16.5589 8.88394 17.1215 8.32133C17.6841 7.75872 18.0002 6.99566 18.0002 6.20001C18.0002 5.40436 17.6841 4.6413 17.1215 4.07869C16.5589 3.51608 15.7958 3.20001 15.0002 3.20001Z" fill="white"/>
</svg>
