<svg xmlns="http://www.w3.org/2000/svg">

	<symbol id="nav-phone" viewBox="0 0 27 27">
		<path d="M15.693 0.178119C15.5458 0.189447 15.4008 0.209838 15.258 0.250619L5.03553 3.15062C3.88686 3.47687 3.20491 4.68445 3.53116 5.83312L8.31616 22.6531C8.32522 22.7098 8.34335 22.7641 8.37053 22.8162L9.05928 25.2631C9.38553 26.4118 10.5931 27.0756 11.7418 26.7494L21.9643 23.8494C23.113 23.5231 23.7949 22.3155 23.4687 21.1669L22.798 18.8106C22.8071 18.6747 22.7686 18.541 22.6893 18.43L17.9405 1.73687C17.6958 0.875932 16.9686 0.284604 16.128 0.178119C15.9876 0.159994 15.8403 0.166791 15.693 0.178119ZM15.7837 1.31999C16.2572 1.28374 16.699 1.58734 16.8349 2.06312L21.4568 18.3756L9.27678 21.8194L4.65491 5.50687C4.50085 4.96085 4.81577 4.41031 5.36178 4.25624L15.5843 1.35624C15.6523 1.33585 15.7157 1.32453 15.7837 1.31999ZM21.1487 5.18062C20.981 5.20781 20.8337 5.30976 20.7454 5.45703C20.6593 5.60203 20.6389 5.78101 20.6955 5.94187L23.5955 16.1644C23.6862 16.4748 24.0101 16.6537 24.3205 16.5631C24.6309 16.4725 24.8099 16.1485 24.7193 15.8381L21.8193 5.61562C21.7536 5.3596 21.5225 5.18062 21.2574 5.18062C21.2393 5.18062 21.2212 5.18062 21.203 5.18062C21.1849 5.18062 21.1668 5.18062 21.1487 5.18062ZM24.4293 7.01124C24.2616 7.03843 24.1144 7.14038 24.026 7.28765C23.9399 7.43265 23.9195 7.61163 23.9762 7.77249L25.4262 12.8837C25.5168 13.1941 25.8408 13.3731 26.1512 13.2825C26.4615 13.1919 26.6405 12.8679 26.5499 12.5575L25.0999 7.44624C25.0342 7.19023 24.8031 7.01124 24.538 7.01124C24.5199 7.01124 24.5018 7.01124 24.4837 7.01124C24.4655 7.01124 24.4474 7.01124 24.4293 7.01124ZM2.78803 10.4006C2.76991 10.4052 2.75178 10.4119 2.73366 10.4187C2.57053 10.4482 2.42553 10.5456 2.33944 10.6884C2.25335 10.8311 2.23069 11.0033 2.28053 11.1619L5.18053 21.3844C5.27116 21.6948 5.59514 21.8737 5.90553 21.7831C6.21592 21.6925 6.39491 21.3685 6.30428 21.0581L3.40428 10.8356C3.33858 10.5796 3.10749 10.4006 2.84241 10.4006C2.82428 10.4006 2.80616 10.4006 2.78803 10.4006ZM0.957409 13.6812C0.939284 13.6858 0.921159 13.6926 0.903034 13.6994C0.739909 13.7288 0.594909 13.8262 0.508816 13.969C0.422722 14.1117 0.400066 14.2839 0.449909 14.4425L1.89991 19.5537C1.99053 19.8641 2.31452 20.0431 2.62491 19.9525C2.9353 19.8619 3.11428 19.5379 3.02366 19.2275L1.57366 14.1162C1.50796 13.8602 1.27686 13.6812 1.01178 13.6812C0.993659 13.6812 0.975534 13.6812 0.957409 13.6812ZM21.783 19.4994L22.3449 21.4931C22.499 22.0391 22.184 22.5897 21.638 22.7437L11.4155 25.6437C10.8695 25.7978 10.319 25.4829 10.1649 24.9369L9.60303 22.9431L21.783 19.4994ZM16.0555 21.91C16.0034 21.9145 15.9445 21.9123 15.8924 21.9281C15.4687 22.0482 15.2286 22.5013 15.3487 22.925C15.4687 23.3487 15.9037 23.5888 16.3274 23.4687C16.7511 23.3487 16.9912 22.9137 16.8712 22.49C16.7669 22.1184 16.4248 21.8828 16.0555 21.91Z" />
	</symbol>

	<symbol id="nav-map" viewBox="0 0 20 30">
		<path d="M9.99998 0.719971C4.73879 0.719971 0.47998 4.97879 0.47998 10.24C0.47998 14.5975 2.76132 19.2525 5.00225 22.8638C7.24317 26.4751 9.48732 29.0475 9.48732 29.0475C9.55155 29.1211 9.63086 29.18 9.71988 29.2202C9.8089 29.2604 9.90552 29.2809 10.0032 29.2804C10.1009 29.2799 10.1973 29.2584 10.2859 29.2173C10.3745 29.1762 10.4532 29.1165 10.5166 29.0422C10.5166 29.0422 12.7593 26.4206 14.999 22.7854C17.2387 19.1502 19.52 14.5017 19.52 10.24C19.52 4.97879 15.2612 0.719971 9.99998 0.719971ZM9.99998 2.07997C14.5308 2.07997 18.16 5.70916 18.16 10.24C18.16 14.0023 16.0212 18.5334 13.8409 22.0722C12.0709 24.9452 10.5988 26.7788 9.996 27.5122C9.39004 26.7879 7.92293 24.9913 6.15771 22.1466C3.97864 18.6349 1.83998 14.1104 1.83998 10.24C1.83998 5.70916 5.46917 2.07997 9.99998 2.07997ZM9.99998 5.47997C7.38507 5.47997 5.23998 7.62506 5.23998 10.24C5.23998 12.8549 7.38507 15 9.99998 15C12.6149 15 14.76 12.8549 14.76 10.24C14.76 7.62506 12.6149 5.47997 9.99998 5.47997ZM9.99998 6.83997C11.8731 6.83997 13.4 8.36688 13.4 10.24C13.4 12.1131 11.8731 13.64 9.99998 13.64C8.12689 13.64 6.59998 12.1131 6.59998 10.24C6.59998 8.36688 8.12689 6.83997 9.99998 6.83997Z" />
	</symbol>

	<symbol id="nav-calendar" viewBox="0 0 26 27">
		<path d="M5.72012 0C5.42767 0 5.12954 0.107144 4.9184 0.318281C4.70726 0.529418 4.60012 0.827556 4.60012 1.12V2.24H1.24012C0.947673 2.24 0.649535 2.34714 0.438398 2.55828C0.227261 2.76942 0.120117 3.06756 0.120117 3.36V7.84V25.76C0.120117 26.0524 0.227261 26.3506 0.438398 26.5617C0.649535 26.7729 0.947673 26.88 1.24012 26.88H24.7601C25.0526 26.88 25.3507 26.7729 25.5618 26.5617C25.773 26.3506 25.8801 26.0524 25.8801 25.76V7.84V3.36C25.8801 3.06756 25.773 2.76942 25.5618 2.55828C25.3507 2.34714 25.0526 2.24 24.7601 2.24H21.4001V1.12C21.4001 0.827556 21.293 0.529418 21.0818 0.318281C20.8707 0.107144 20.5726 0 20.2801 0H19.1601C18.8677 0 18.5695 0.107144 18.3584 0.318281C18.1473 0.529418 18.0401 0.827556 18.0401 1.12V2.24H7.96012V1.12C7.96012 0.827556 7.85297 0.529418 7.64184 0.318281C7.4307 0.107144 7.13256 0 6.84012 0H5.72012ZM5.72012 1.12H6.84012V4.48H5.72012V1.12ZM19.1601 1.12H20.2801V2.70594C20.2701 2.76641 20.2701 2.82812 20.2801 2.88859V4.48H19.1601V1.12ZM1.24012 3.36H4.60012V4.48C4.60012 4.77244 4.70726 5.07058 4.9184 5.28172C5.12954 5.49286 5.42767 5.6 5.72012 5.6H6.84012C7.13256 5.6 7.4307 5.49286 7.64184 5.28172C7.85297 5.07058 7.96012 4.77244 7.96012 4.48V3.36H18.0401V4.48C18.0401 4.77244 18.1473 5.07058 18.3584 5.28172C18.5695 5.49286 18.8677 5.6 19.1601 5.6H20.2801C20.5726 5.6 20.8707 5.49286 21.0818 5.28172C21.293 5.07058 21.4001 4.77244 21.4001 4.48V3.36H24.7601V7.28H1.24012V3.36ZM1.24012 8.4H24.7601V25.76H1.24012V8.4ZM9.07137 10.6323C9.0446 10.633 9.01792 10.6355 8.99152 10.64H5.16012C5.0116 10.64 4.86917 10.699 4.76415 10.804C4.65914 10.9091 4.60013 11.0515 4.60012 11.2V15.0259C4.59012 15.0864 4.59012 15.1481 4.60012 15.2086V18.9459C4.59012 19.0064 4.59012 19.0681 4.60012 19.1286V22.96C4.60013 23.1085 4.65914 23.2509 4.76415 23.356C4.86917 23.461 5.0116 23.52 5.16012 23.52H8.98605C9.04653 23.53 9.10823 23.53 9.16871 23.52H12.9061C12.9665 23.53 13.0282 23.53 13.0887 23.52H15.8001H16.8261C16.8865 23.53 16.9482 23.53 17.0087 23.52H20.8401C20.9886 23.52 21.1311 23.461 21.2361 23.356C21.3411 23.2509 21.4001 23.1085 21.4001 22.96V19.1341C21.4101 19.0736 21.4101 19.0119 21.4001 18.9514V15.2141C21.4101 15.1536 21.4101 15.0919 21.4001 15.0314V11.2C21.4001 11.0515 21.3411 10.9091 21.2361 10.804C21.1311 10.699 20.9886 10.64 20.8401 10.64H17.0142C16.9537 10.63 16.892 10.63 16.8315 10.64H13.0942C13.0337 10.63 12.972 10.63 12.9115 10.64H9.17418C9.14022 10.6343 9.1058 10.6317 9.07137 10.6323ZM5.72012 11.76H8.52012V14.56H5.72012V11.76ZM9.64012 11.76H12.4401V14.56H9.64012V11.76ZM13.5601 11.76H16.3601V14.56H13.5601V11.76ZM17.4801 11.76H20.2801V14.56H17.4801V11.76ZM5.72012 15.68H8.52012V18.48H5.72012V15.68ZM9.64012 15.68H12.4401V18.48H9.64012V15.68ZM13.5601 15.68H16.3601V18.48H13.5601V15.68ZM17.4801 15.68H20.2801V18.48H17.4801V15.68ZM5.72012 19.6H8.52012V22.4H5.72012V19.6ZM9.64012 19.6H12.4401V22.4H9.64012V19.6ZM13.5601 19.6H16.3601V22.4H15.8001H13.5601V19.6ZM17.4801 19.6H20.2801V22.4H17.4801V19.6Z"/>
	</symbol>
	
	<symbol id="list-icon-1" viewBox="0 0 46 46">
		<path d="M46 23C46 19.655 44.099 16.735 41.324 15.26C42.082 12.372 41.343 9.162 39.09 6.909C37.407 5.226 35.19 4.388 32.971 4.388C32.22 4.388 31.469 4.484 30.739 4.676C29.265 1.901 26.345 0 23 0C19.655 0 16.735 1.901 15.26 4.676C14.529 4.484 13.779 4.388 13.028 4.388C10.809 4.388 8.592 5.226 6.909 6.909C4.656 9.162 3.917 12.371 4.675 15.26C1.901 16.735 0 19.655 0 23C0 26.345 1.901 29.265 4.676 30.74C3.918 33.628 4.657 36.838 6.91 39.091C8.593 40.774 10.81 41.612 13.029 41.612C13.78 41.612 14.531 41.516 15.261 41.324C16.735 44.099 19.655 46 23 46C26.345 46 29.265 44.099 30.74 41.324C31.471 41.516 32.221 41.612 32.972 41.612C35.191 41.612 37.408 40.774 39.091 39.091C41.344 36.838 42.083 33.629 41.325 30.74C44.099 29.265 46 26.345 46 23ZM19.714 30.985L12.436 23.707L13.85 22.293L19.714 28.157L32.15 15.722L33.564 17.136L19.714 30.985Z"/>
	</symbol>

	<symbol id="telegramm-icon" viewBox="0 0 46 46">
		<path d="M26.3467 0.648447C25.9674 0.665178 25.6141 0.775641 25.3031 0.901377C25.0117 1.01858 23.8984 1.49607 22.1449 2.24806C20.3898 3.0007 18.0659 3.99842 15.5869 5.06446C10.629 7.19655 5.05491 9.59654 2.19987 10.8249C2.09251 10.8711 1.71791 10.9907 1.32031 11.3011C0.922717 11.6115 0.5 12.2547 0.5 12.9714C0.5 13.5493 0.775412 14.1234 1.12207 14.4662C1.46873 14.8089 1.83554 14.9783 2.14974 15.1065C3.28977 15.5716 6.82549 17.0185 7.49316 17.2917C7.72814 18.0115 9.00791 21.9263 9.30469 22.8858C9.50033 23.5189 9.68656 23.9154 9.92904 24.2302C10.0503 24.3875 10.1912 24.5254 10.362 24.6335C10.4302 24.6767 10.5051 24.7099 10.5807 24.7406L10.5853 24.7428C10.6027 24.7498 10.6177 24.7617 10.6354 24.7679C10.6688 24.7796 10.6911 24.781 10.7357 24.7907C10.9134 24.8481 11.0928 24.8841 11.2529 24.8841C11.9356 24.8841 12.3535 24.5081 12.3535 24.5081L12.3786 24.4899L15.89 21.4525L20.1488 25.4811C20.2087 25.5659 20.768 26.3333 22.0013 26.3333C22.7336 26.3333 23.3145 25.9659 23.6875 25.5746C24.0605 25.1832 24.2928 24.7721 24.3916 24.2552V24.2529C24.484 23.7645 28.4089 3.61524 28.4089 3.61524L28.402 3.64259C28.5169 3.11816 28.547 2.62976 28.4202 2.1478C28.2935 1.66584 27.9594 1.20438 27.5452 0.956064C27.1311 0.707802 26.7259 0.631716 26.3467 0.648447ZM26.1279 3.0866C26.1223 3.12065 26.1321 3.10353 26.1234 3.14356L26.1211 3.15724L26.1188 3.17091C26.1188 3.17091 22.2426 23.0624 22.0993 23.82C22.1098 23.7628 22.0618 23.8765 22.0127 23.9453C21.9432 23.8974 21.8008 23.8359 21.8008 23.8359L21.778 23.8109L15.9606 18.308L11.8477 21.8626L13.0713 16.9636C13.0713 16.9636 20.7202 9.0458 21.181 8.58497C21.552 8.2163 21.6299 8.08779 21.6299 7.96062C21.6299 7.79029 21.5411 7.66668 21.3428 7.66668C21.1643 7.66668 20.9242 7.84022 20.7959 7.92188C19.1239 8.98769 11.7838 13.2657 8.49349 15.1794C7.97061 14.9654 4.33794 13.4784 3.10677 12.9759C3.11609 12.9718 3.11302 12.9733 3.12272 12.9691C5.97851 11.7404 11.5502 9.34045 16.5075 7.20867C18.9861 6.14278 21.3118 5.14429 23.0654 4.39226C24.7921 3.65181 25.9918 3.14221 26.1279 3.0866Z" />
	</symbol>

	<symbol id="button-arrow" viewBox="0 0 20 13">
		<path d="M2 11L11.2228 2M18 11L8.77722 2" stroke-width="4"/>
	</symbol>

	<symbol id="telegram-icon" viewBox="0 0 29 27">
		<path d="M26.3467 0.648447C25.9674 0.665178 25.6141 0.775641 25.3031 0.901377C25.0117 1.01858 23.8984 1.49607 22.1449 2.24806C20.3898 3.0007 18.0659 3.99842 15.5869 5.06446C10.629 7.19655 5.05491 9.59654 2.19987 10.8249C2.09251 10.8711 1.71791 10.9907 1.32031 11.3011C0.922717 11.6115 0.5 12.2547 0.5 12.9714C0.5 13.5493 0.775412 14.1234 1.12207 14.4662C1.46873 14.8089 1.83554 14.9783 2.14974 15.1065C3.28977 15.5716 6.82549 17.0185 7.49316 17.2917C7.72814 18.0115 9.00791 21.9263 9.30469 22.8858C9.50033 23.5189 9.68656 23.9154 9.92904 24.2302C10.0503 24.3875 10.1912 24.5254 10.362 24.6335C10.4302 24.6767 10.5051 24.7099 10.5807 24.7406L10.5853 24.7428C10.6027 24.7498 10.6177 24.7617 10.6354 24.7679C10.6688 24.7796 10.6911 24.781 10.7357 24.7907C10.9134 24.8481 11.0928 24.8841 11.2529 24.8841C11.9356 24.8841 12.3535 24.5081 12.3535 24.5081L12.3786 24.4899L15.89 21.4525L20.1488 25.4811C20.2087 25.5659 20.768 26.3333 22.0013 26.3333C22.7336 26.3333 23.3145 25.9659 23.6875 25.5746C24.0605 25.1832 24.2928 24.7721 24.3916 24.2552V24.2529C24.484 23.7645 28.4089 3.61524 28.4089 3.61524L28.402 3.64259C28.5169 3.11816 28.547 2.62976 28.4202 2.1478C28.2935 1.66584 27.9594 1.20438 27.5452 0.956064C27.1311 0.707802 26.7259 0.631716 26.3467 0.648447ZM26.1279 3.0866C26.1223 3.12065 26.1321 3.10353 26.1234 3.14356L26.1211 3.15724L26.1188 3.17091C26.1188 3.17091 22.2426 23.0624 22.0993 23.82C22.1098 23.7628 22.0618 23.8765 22.0127 23.9453C21.9432 23.8974 21.8008 23.8359 21.8008 23.8359L21.778 23.8109L15.9606 18.308L11.8477 21.8626L13.0713 16.9636C13.0713 16.9636 20.7202 9.0458 21.181 8.58497C21.552 8.2163 21.6299 8.08779 21.6299 7.96062C21.6299 7.79029 21.5411 7.66668 21.3428 7.66668C21.1643 7.66668 20.9242 7.84022 20.7959 7.92188C19.1239 8.98769 11.7838 13.2657 8.49349 15.1794C7.97061 14.9654 4.33794 13.4784 3.10677 12.9759C3.11609 12.9718 3.11302 12.9733 3.12272 12.9691C5.97851 11.7404 11.5502 9.34045 16.5075 7.20867C18.9861 6.14278 21.3118 5.14429 23.0654 4.39226C24.7921 3.65181 25.9918 3.14221 26.1279 3.0866Z"/>
	</symbol>

	<symbol id="possibilitiy-microphone" viewBox="0 0 56 68">
		<path d="M39.5999 0.3125C31.178 0.3125 24.2765 7.11016 24.1124 15.4937C23.303 16.768 12.5679 33.6883 4.11865 42.1375L4.1624 42.1812C4.04756 42.2687 3.6374 42.5094 3.3749 43.1875C3.07412 43.9641 3.31475 45.2711 4.1624 46.1187L6.13115 48.0875L3.76865 50.45C1.35147 52.8672 0.27412 55.607 0.356152 58.1937C0.438183 60.7805 1.59756 63.1539 3.3749 64.8438C6.92412 68.2234 13.1257 69.0055 17.7249 64.4062L36.9312 45.2C40.6663 41.4648 44.7515 42.2359 47.2562 44.675C48.5085 45.8945 49.3179 47.5461 49.3562 49.3125C49.3944 51.0789 48.7218 53.0094 46.7749 54.9562L37.8937 63.8375C37.314 64.4172 37.314 65.3578 37.8937 65.9375C38.4733 66.5172 39.414 66.5172 39.9937 65.9375L48.8312 57.0562C51.2483 54.6391 52.3421 51.8664 52.2874 49.2687C52.2327 46.6711 51.0733 44.2867 49.3124 42.575C47.5515 40.8633 45.1179 39.8078 42.5312 39.775C39.9444 39.7422 37.2319 40.743 34.8749 43.1L15.6687 62.3062C12.0812 65.8937 7.96865 65.1172 5.43115 62.7C4.1624 61.4914 3.34209 59.8453 3.2874 58.1063C3.23272 56.3672 3.87803 54.4531 5.8249 52.5062L5.95615 52.4188L8.1874 50.1875L9.2374 51.1937C10.0741 52.0305 11.228 52.3477 12.0374 52.1125C12.7429 51.9102 12.989 51.4453 13.0874 51.325L13.1749 51.4125C21.4108 43.1711 38.6265 32.1078 39.9062 31.2875C48.2952 31.1234 55.0874 24.2273 55.0874 15.8C55.0874 7.27422 48.1202 0.3125 39.5999 0.3125ZM39.5999 3.2875C46.5288 3.2875 52.1124 8.86562 52.1124 15.8C52.1124 18.5727 51.221 21.1266 49.7062 23.1938L32.2062 5.69375C34.2733 4.17891 36.8272 3.2875 39.5999 3.2875ZM30.0624 7.70625L47.7374 25.3375C45.5554 27.2023 42.7116 28.3125 39.5999 28.3125C32.6655 28.3125 27.0874 22.7398 27.0874 15.8C27.0874 12.6992 28.2085 9.88828 30.0624 7.70625ZM24.6812 19.8687C26.1304 25.157 30.3194 29.3461 35.6187 30.7625C29.9147 34.525 18.0312 42.6023 11.2937 49.3125C11.2718 49.2852 11.2772 49.2961 11.2062 49.225L6.13115 44.1063C12.978 37.243 20.9679 25.5508 24.6812 19.8687ZM24.4624 29.1437C24.0413 29.1437 23.5983 29.3078 23.2812 29.625L19.5187 33.4312C18.8788 34.0711 18.8788 35.1102 19.5187 35.75L19.6499 35.8812C20.2843 36.5211 21.3288 36.5211 21.9687 35.8812L25.7749 32.075C26.4147 31.4406 26.4093 30.3961 25.7749 29.7563L25.5999 29.625C25.2827 29.3078 24.8835 29.1437 24.4624 29.1437Z" fill="url(#paint0_linear_51_972)"/>
		<defs>
			<linearGradient id="paint0_linear_51_972" x1="27.7196" y1="0.3125" x2="27.7196" y2="67.6185" gradientUnits="userSpaceOnUse">
				<stop stop-color="#FFC619"/>
				<stop offset="0.520833" stop-color="#F69020"/>
				<stop offset="1" stop-color="#EA422A"/>
			</linearGradient>
		</defs>
	</symbol>

	<symbol id="possibilitiy-bottle" viewBox="0 0 63 63">
		<path d="M54.908 0.69047C53.2749 0.69047 51.6418 1.30813 50.4065 2.54344L47.9725 4.97742C47.5014 5.44852 47.449 6.19703 47.8521 6.73094L45.0046 9.57844C39.1997 15.3834 34.3579 17.1421 29.4951 18.7648C24.6376 20.3874 19.6754 21.8687 14.5772 26.9723L2.28161 39.2626C0.156455 41.3877 0.156455 44.8738 2.28161 47.0042L9.13864 53.8612L15.9957 60.713C18.1261 62.8434 21.6122 62.8434 23.7373 60.713L36.0276 48.4227C41.1311 43.3245 42.6125 38.3623 44.2299 33.5048C45.8526 28.642 47.6113 23.8002 53.4215 17.9953L56.269 15.1478C56.8029 15.5509 57.5514 15.4985 58.0225 15.0274L60.4565 12.5934C62.9323 10.1176 62.9323 6.06617 60.4565 3.59031L59.4096 2.54344C58.169 1.30813 56.5411 0.685235 54.908 0.69047ZM54.908 3.34953C55.8502 3.35477 56.7924 3.71594 57.52 4.43828L58.5616 5.48516C60.0115 6.93508 60.0115 9.24867 58.5616 10.6986L57.0855 12.1747L53.9554 9.04453C53.9187 9.00789 53.8768 8.97125 53.835 8.93985L50.82 5.92484L52.2961 4.43828C53.0236 3.71594 53.9658 3.34953 54.908 3.34953ZM31.4999 3.36C30.7618 3.36 30.1599 3.96195 30.1599 4.7C30.1599 5.43805 30.7618 6.04 31.4999 6.04C32.2379 6.04 32.8399 5.43805 32.8399 4.7C32.8399 3.96195 32.2379 3.36 31.4999 3.36ZM39.5399 7.38C38.8018 7.38 38.1999 7.98195 38.1999 8.72C38.1999 9.45805 38.8018 10.06 39.5399 10.06C40.2779 10.06 40.8799 9.45805 40.8799 8.72C40.8799 7.98195 40.2779 7.38 39.5399 7.38ZM49.7365 8.63625L54.3636 13.2634L51.5214 16.1005C49.5114 18.1157 47.9725 20.0472 46.7058 21.9263L41.0736 16.2941C42.9527 15.0274 44.8842 13.4885 46.8994 11.4785L49.7365 8.63625ZM38.739 17.7441L45.2558 24.2609C44.1095 26.2918 43.272 28.2442 42.5811 30.1181L35.3105 27.6894L32.8818 20.4188C34.7557 19.7279 36.7081 18.8904 38.739 17.7441ZM30.3536 21.3034L32.9812 29.1759C33.1121 29.5737 33.4261 29.8878 33.824 30.0187L41.6965 32.6463C41.6912 32.6463 41.6912 32.6516 41.6912 32.6516C40.0529 37.5719 38.8176 41.8484 34.138 46.5331L21.8477 58.8234C20.7433 59.9227 18.995 59.9227 17.8905 58.8234L4.17646 45.1094C3.07724 44.0049 3.07724 42.2566 4.17646 41.1522L16.4668 28.8619C21.1515 24.1823 25.428 22.947 30.3483 21.3087C30.3483 21.3087 30.3536 21.3087 30.3536 21.3034ZM56.9599 22.12C56.2218 22.12 55.6199 22.722 55.6199 23.46C55.6199 24.198 56.2218 24.8 56.9599 24.8C57.6979 24.8 58.2999 24.198 58.2999 23.46C58.2999 22.722 57.6979 22.12 56.9599 22.12ZM60.9799 27.48C60.2418 27.48 59.6399 28.082 59.6399 28.82C59.6399 29.558 60.2418 30.16 60.9799 30.16C61.7179 30.16 62.3199 29.558 62.3199 28.82C62.3199 28.082 61.7179 27.48 60.9799 27.48ZM54.2799 30.16C53.5418 30.16 52.9399 30.762 52.9399 31.5C52.9399 32.238 53.5418 32.84 54.2799 32.84C55.0179 32.84 55.6199 32.238 55.6199 31.5C55.6199 30.762 55.0179 30.16 54.2799 30.16ZM28.8199 31.5C27.3386 31.5 26.1399 32.6987 26.1399 34.18C26.1399 35.6613 27.3386 36.86 28.8199 36.86C30.3012 36.86 31.4999 35.6613 31.4999 34.18C31.4999 32.6987 30.3012 31.5 28.8199 31.5ZM18.5082 32.259C18.1575 32.2642 17.8277 32.4055 17.5765 32.6516L9.13864 41.0946C8.61521 41.618 8.61521 42.4712 9.13864 42.9947L20.0052 53.8612C20.5286 54.3794 21.3818 54.3794 21.9053 53.8612L30.3431 45.4182C30.8665 44.8948 30.8665 44.0468 30.3431 43.5234L19.4765 32.6516C19.22 32.4003 18.8693 32.259 18.5082 32.259ZM18.5239 35.4991L27.5008 44.4708L20.9526 51.0137L11.9809 42.0473L18.5239 35.4991Z" fill="url(#paint0_linear_51_978)"/>
		<defs>
			<linearGradient id="paint0_linear_51_978" x1="31.5038" y1="0.690437" x2="31.5038" y2="62.3108" gradientUnits="userSpaceOnUse">
				<stop stop-color="#FFC619"/>
				<stop offset="0.520833" stop-color="#F69020"/>
				<stop offset="1" stop-color="#EA422A"/>
			</linearGradient>
		</defs>
	</symbol>

	<symbol id="possibilitiy-money" viewBox="0 0 68 65">
		<path d="M46.58 0.8475L45.815 1.995L33.745 19.3775L23.12 22.5225L23.0775 22.565H23.035C21.6909 23.0697 20.6496 23.9516 19.8475 25.0725L19.805 25.115V25.1575L10.625 39.31L10.285 38.205L1.35996 40.8825L0.0849609 41.3075L0.467461 42.5825L6.58746 63.11L6.96996 64.4275L8.28746 64.045L15.895 61.7075L17.2125 61.325L16.7875 60.05L16.0225 57.4575L26.69 55.0775C29.9678 54.3338 32.9534 52.5647 35.0625 49.85L35.5725 49.2125L40.715 52.825L41.82 53.6325L42.585 52.485L67.235 16.87L68 15.765L66.8525 14.9575L47.685 1.655L46.58 0.8475ZM47.26 4.63L64.2175 16.445L54.485 30.5125C55.7334 26.5334 53.8209 21.7681 49.7675 18.9525C49.7568 18.9472 49.7781 18.9153 49.7675 18.91C49.7568 18.8994 49.7356 18.9206 49.725 18.91C47.3609 17.2419 44.5506 16.5459 41.99 16.785C40.5237 16.9231 39.1478 17.3906 37.9525 18.145L47.26 4.63ZM52.955 12.705C52.2112 12.6997 51.494 13.0662 51.0425 13.725C50.32 14.7769 50.5856 16.19 51.6375 16.9125C52.6893 17.635 54.145 17.3694 54.8675 16.3175C55.59 15.2656 55.3243 13.8525 54.2725 13.13C53.8793 12.8591 53.4012 12.7103 52.955 12.705ZM42.33 19.4625C44.2106 19.2925 46.309 19.8078 48.1525 21.12L48.195 21.1625C52.0465 23.8134 53.194 28.3078 51.255 31.1075H51.2125C50.235 32.6163 48.604 33.4344 46.58 33.53C46.649 31.9734 46.0965 30.4222 44.88 29.28C44.8693 29.2694 44.8481 29.2906 44.8375 29.28C42.9834 27.4472 40.0934 27.1391 37.9525 28.5575C36.6562 26.2253 36.5606 23.6912 37.825 21.885C38.7918 20.4878 40.4493 19.6325 42.33 19.4625ZM31.3225 22.9475L24.82 33.19L24.0975 34.38L25.2875 35.06L29.6225 37.6525L30.43 38.1625L31.195 37.525L38.08 31.9575C38.4306 31.8459 38.7175 31.6016 38.8875 31.2775L39.2275 31.0225C40.3112 30.1194 41.9687 30.1938 42.9675 31.1925V31.235H43.01C44.1256 32.255 44.2265 33.8488 43.265 35.1025L32.9375 48.15C31.2375 50.3334 28.8043 51.8263 26.095 52.4425L15.2575 54.865L11.4325 42.03L11.8575 41.86L12.325 41.69L12.58 41.3075L22.0575 26.6875C22.594 25.9331 23.1465 25.4709 23.9275 25.1575C23.9593 25.1469 23.9806 25.1256 24.0125 25.115L31.3225 22.9475ZM34.425 23.1175C33.899 25.4816 34.4303 28.0475 35.785 30.3L30.2175 34.8475L27.88 33.445L34.425 23.1175ZM51.765 34.465L41.14 49.85L37.23 47.0875L45.39 36.8025V36.76H45.4325C45.56 36.5953 45.6662 36.4253 45.7725 36.25C47.9825 36.3138 50.1128 35.7453 51.765 34.465ZM8.45746 41.5625L13.8125 59.54L8.79746 61.07L3.44246 43.135L8.45746 41.5625Z" fill="url(#paint0_linear_51_984)"/>
		<defs>
			<linearGradient id="paint0_linear_51_984" x1="34.0425" y1="0.8475" x2="34.0425" y2="64.4275" gradientUnits="userSpaceOnUse">
				<stop stop-color="#FFC619"/>
				<stop offset="0.520833" stop-color="#F69020"/>
				<stop offset="1" stop-color="#EA422A"/>
			</linearGradient>
		</defs>
	</symbol>

	<symbol id="possibilitiy-present" viewBox="0 0 62 61">
		<path d="M37.8399 0.156876L36.8784 1.11844L32.5168 5.48L37.8399 10.8031L43.1631 5.48L37.8399 0.156876ZM20.8399 3.44C20.4793 3.44004 20.1334 3.58333 19.8783 3.83838C19.6233 4.09342 19.48 4.43932 19.4799 4.8V11.6C19.48 11.9607 19.6233 12.3066 19.8783 12.5616C20.1334 12.8167 20.4793 12.96 20.8399 12.96H22.1999C23.8257 12.96 24.1793 13.4489 24.5268 14.2297C24.8743 15.0105 24.9199 16.1839 24.9199 17.04C24.9199 18.1503 24.7853 19.3177 24.5959 20.44C23.4004 20.0189 22.2532 19.7675 21.1906 19.76C19.9896 19.7514 18.7954 20.0886 17.942 20.942C17.5779 21.3061 17.3339 21.741 17.1451 22.2011L17.1212 22.1931L2.17447 60.0819L41.4153 46.6466L41.4073 46.6227C41.9111 46.4326 42.3845 46.1712 42.7779 45.778C43.7952 44.7607 44.071 43.2943 43.9201 41.8281C43.825 40.9038 43.5573 39.9275 43.171 38.9142C44.2448 38.8492 45.3868 38.8 46.6799 38.8C48.6187 38.8 50.453 39.0345 51.6445 39.4481C52.2402 39.655 52.6599 39.9083 52.8637 40.1016C53.0675 40.2948 53.0788 40.3509 53.0788 40.5V41.52C53.0789 41.8807 53.2222 42.2266 53.4772 42.4816C53.7323 42.7367 54.0782 42.88 54.4388 42.88H60.2799C60.4619 42.8801 60.6421 42.8436 60.8097 42.7728C60.9774 42.7019 61.1291 42.5982 61.2559 42.4676C61.3828 42.3371 61.4821 42.1824 61.548 42.0128C61.614 41.8432 61.6453 41.6621 61.6399 41.4802C61.6399 41.4802 61.5999 39.8042 61.6001 39.7855C61.6001 39.7846 61.6001 39.7837 61.6001 39.7828C61.625 36.6954 59.6803 34.3026 57.281 32.8314C54.8818 31.3602 51.9699 30.64 49.3707 30.64C45.0692 30.64 41.8696 31.7559 39.7285 32.8606C39.0534 31.9437 38.3095 31.0198 37.4973 30.1008C37.9823 29.946 38.4746 29.8019 38.9503 29.6731C39.9084 29.4137 40.8141 29.2011 41.5188 29.0436C42.2236 28.8861 42.6126 28.8185 42.9665 28.7195C44.0644 28.4118 45.5631 28.0357 46.9057 27.1391C48.2484 26.2424 49.3999 24.6297 49.3999 22.48C49.3999 21.8915 49.1146 21.5641 48.9271 21.12H49.3999C52.3074 21.12 54.8399 18.7724 54.8399 15.68V13.81C54.8399 13.81 54.8501 13.6247 54.9781 13.4169C55.106 13.209 55.2083 12.96 56.1999 12.96H57.5599C57.9206 12.96 58.2665 12.8167 58.5216 12.5616C58.7766 12.3066 58.9199 11.9607 58.9199 11.6V6.16266C58.9199 5.80197 58.7766 5.45607 58.5216 5.20103C58.2665 4.94599 57.9206 4.80269 57.5599 4.80266H55.3553C51.7406 4.79961 49.5079 6.47285 48.3135 8.06453C47.428 9.24421 47.1552 10.702 46.9456 11.9533C46.8536 12.5021 46.872 12.5613 46.8313 12.96H46.6799C44.3377 12.96 42.5025 13.809 41.386 15.1488C40.2696 16.4885 39.8799 18.1733 39.8799 19.76V21.6061C37.6509 22.341 35.0981 23.5343 32.902 25.6117C31.6074 24.5108 30.3207 23.5271 29.0584 22.7058C30.4523 20.2479 31.7199 16.9317 31.7199 12.96C31.7199 10.6178 30.9437 8.25266 29.3187 6.44156C27.6937 4.63046 25.2037 3.44 22.099 3.44H22.0963H22.0778H20.8399ZM37.8399 4.00313L39.3168 5.48L37.8399 6.95688L36.3631 5.48L37.8399 4.00313ZM9.27994 5.59688L8.31838 6.55844L3.95682 10.92L9.27994 16.2431L14.6031 10.92L9.27994 5.59688ZM22.1999 6.17859C24.5719 6.20573 26.1924 7.02991 27.2946 8.25844C28.4152 9.50734 28.9999 11.2222 28.9999 12.96C28.9999 15.7916 28.1754 18.1017 27.2149 20.092C27.3676 19.0497 27.6399 18.1279 27.6399 17.04C27.6399 16.1839 27.6856 14.6358 27.0131 13.1247C26.3406 11.6136 24.6541 10.24 22.1999 10.24V6.17859ZM55.3526 7.52266C55.3535 7.52266 55.3544 7.52266 55.3553 7.52266H56.1999V10.24C54.4716 10.24 53.2139 11.096 52.6618 11.9931C52.1097 12.8903 52.1199 13.81 52.1199 13.81V15.68C52.1199 17.3476 50.9125 18.4 49.3999 18.4H46.6799C46.4322 18.4 46.1891 18.4677 45.977 18.5958C45.7649 18.7239 45.5918 18.9075 45.4764 19.1268C45.361 19.3461 45.3077 19.5927 45.3223 19.84C45.3368 20.0874 45.4187 20.3261 45.559 20.5303C45.5595 20.531 45.6651 20.6647 45.6732 20.6737C45.6814 20.6829 45.6867 20.6893 45.6918 20.695C45.7021 20.7063 45.714 20.7181 45.729 20.7348C45.759 20.7684 45.8019 20.8184 45.8538 20.8809C45.9577 21.0059 46.0955 21.1833 46.2284 21.3856C46.4942 21.7902 46.6799 22.2977 46.6799 22.48C46.6799 23.782 46.2185 24.3256 45.3943 24.8759C44.5702 25.4263 43.3482 25.788 42.2334 26.1005C42.2785 26.0878 41.6509 26.2275 40.9238 26.39C40.1968 26.5525 39.2557 26.774 38.241 27.0488C36.683 27.4706 35.1323 28.1476 33.6935 28.8683C35.9711 26.0344 39.0983 24.4931 41.6065 23.7895C41.8923 23.7095 42.1441 23.5382 42.3234 23.3018C42.5028 23.0654 42.5999 22.7768 42.5999 22.48V19.76C42.5999 18.6267 42.8903 17.5915 43.4738 16.8913C44.0574 16.191 44.9422 15.68 46.6799 15.68H48.0399C48.3881 15.6798 48.7229 15.5461 48.9754 15.3064C49.2279 15.0667 49.3789 14.7394 49.3973 14.3917C49.3973 14.3917 49.4467 13.4864 49.6284 12.4022C49.8101 11.318 50.2173 10.054 50.4863 9.69547C50.4872 9.69547 50.4881 9.69547 50.489 9.69547C51.3349 8.56758 52.5002 7.52026 55.3526 7.52266ZM9.27994 9.44313L10.7568 10.92L9.27994 12.3969L7.80307 10.92L9.27994 9.44313ZM56.8799 21.12L53.4799 24.52L56.8799 27.92L60.2773 24.52L56.8799 21.12ZM3.83994 22.48L0.439941 25.88L3.83994 29.28L7.23729 25.88L3.83994 22.48ZM21.1693 22.48C21.8822 22.485 22.8671 22.7455 23.9982 23.2025C23.6093 24.6874 23.2346 25.7822 23.119 26.1323C23.0257 26.4152 23.0279 26.7208 23.1251 27.0023C23.2223 27.2838 23.4093 27.5256 23.6572 27.6906C23.9052 27.8556 24.2004 27.9346 24.4976 27.9156C24.7948 27.8966 25.0776 27.7806 25.3024 27.5853C25.4932 27.4192 25.8272 27.1077 26.434 26.4166C26.7582 26.0473 27.1362 25.5801 27.5337 25.0459C28.6917 25.7727 29.9003 26.6537 31.109 27.6623C30.933 27.9028 30.7492 28.1295 30.5831 28.3875L27.8578 32.6242C27.6889 32.8885 27.6167 33.2031 27.6532 33.5146C27.6897 33.8261 27.8327 34.1154 28.058 34.3335C28.2833 34.5517 28.5771 34.6852 28.8897 34.7116C29.2022 34.738 29.5142 34.6556 29.7729 34.4783L33.8635 31.6547C34.1035 31.489 34.4175 31.3176 34.772 31.1473C35.7475 32.198 36.636 33.2571 37.4123 34.2977C36.9775 34.6319 36.6377 34.9272 36.5729 34.9909C36.572 34.9918 36.5711 34.9927 36.5703 34.9936L33.4837 38.043C33.2615 38.2626 33.1217 38.552 33.0878 38.8626C33.0539 39.1732 33.1279 39.486 33.2974 39.7484C33.467 40.0108 33.7217 40.2068 34.0188 40.3036C34.3158 40.4003 34.6371 40.3918 34.9287 40.2795C34.9287 40.2795 36.7139 39.6018 40.3342 39.1639C40.8331 40.3027 41.1353 41.3227 41.216 42.107C41.3164 43.0824 41.1227 43.5869 40.8548 43.8548C40.7501 43.9595 40.6 44.0469 40.4112 44.1152L40.2731 44.163C40.0317 44.226 39.7267 44.2561 39.3221 44.232C38.4733 44.1814 37.3053 43.8629 35.9832 43.2625C33.3391 42.0617 30.0868 39.7653 27.021 36.6989C23.9552 33.6324 21.6584 30.381 20.4574 27.7367C19.857 26.4146 19.5386 25.2438 19.4879 24.3952C19.4627 23.9734 19.4961 23.6546 19.5649 23.4097C19.573 23.3812 19.5852 23.3619 19.5942 23.3353C19.6633 23.1311 19.755 22.9753 19.8651 22.8652C20.0888 22.6415 20.4554 22.4749 21.1693 22.48ZM17.6896 28.1644C17.7841 28.3964 17.8718 28.6266 17.9792 28.863C19.3683 31.9216 21.8371 35.3605 25.0979 38.622C28.3589 41.8837 31.7983 44.3518 34.857 45.7408C34.9802 45.7967 35.0989 45.8397 35.2209 45.8922L6.86541 55.6008L17.6896 28.1644ZM49.3707 33.36C51.4418 33.36 53.982 33.9988 55.8599 35.1503C57.7379 36.3018 58.896 37.7953 58.8801 39.7589C58.879 39.8636 58.8851 39.9941 58.8881 40.16H55.6474C55.5422 39.3861 55.262 38.6266 54.7363 38.128C54.1228 37.546 53.3683 37.1691 52.5343 36.8795C50.8663 36.3004 48.8212 36.08 46.6799 36.08C43.1798 36.08 40.7852 36.4386 38.7085 36.7786C39.0205 36.4807 42.3746 33.36 49.3707 33.36ZM47.3599 49.1169L46.3984 50.0784L42.0368 54.44L47.3599 59.7631L52.6831 54.44L47.3599 49.1169ZM47.3599 52.9631L48.8368 54.44L47.3599 55.9169L45.8831 54.44L47.3599 52.9631Z" fill="url(#paint0_linear_51_990)"/>
		<defs>
			<linearGradient id="paint0_linear_51_990" x1="31.0402" y1="0.156876" x2="31.0402" y2="60.0819" gradientUnits="userSpaceOnUse">
				<stop stop-color="#FFC619"/>
				<stop offset="0.520833" stop-color="#F69020"/>
				<stop offset="1" stop-color="#EA422A"/>
			</linearGradient>
		</defs>
	</symbol>

	<symbol id="possibilitiy-microphone-iron" viewBox="0 0 56 68">
		<path d="M39.5999 0.3125C31.178 0.3125 24.2765 7.11016 24.1124 15.4937C23.303 16.768 12.5679 33.6883 4.11865 42.1375L4.1624 42.1812C4.04756 42.2687 3.6374 42.5094 3.3749 43.1875C3.07412 43.9641 3.31475 45.2711 4.1624 46.1187L6.13115 48.0875L3.76865 50.45C1.35147 52.8672 0.27412 55.607 0.356152 58.1937C0.438183 60.7805 1.59756 63.1539 3.3749 64.8438C6.92412 68.2234 13.1257 69.0055 17.7249 64.4062L36.9312 45.2C40.6663 41.4648 44.7515 42.2359 47.2562 44.675C48.5085 45.8945 49.3179 47.5461 49.3562 49.3125C49.3944 51.0789 48.7218 53.0094 46.7749 54.9562L37.8937 63.8375C37.314 64.4172 37.314 65.3578 37.8937 65.9375C38.4733 66.5172 39.414 66.5172 39.9937 65.9375L48.8312 57.0562C51.2483 54.6391 52.3421 51.8664 52.2874 49.2687C52.2327 46.6711 51.0733 44.2867 49.3124 42.575C47.5515 40.8633 45.1179 39.8078 42.5312 39.775C39.9444 39.7422 37.2319 40.743 34.8749 43.1L15.6687 62.3062C12.0812 65.8937 7.96865 65.1172 5.43115 62.7C4.1624 61.4914 3.34209 59.8453 3.2874 58.1063C3.23272 56.3672 3.87803 54.4531 5.8249 52.5062L5.95615 52.4188L8.1874 50.1875L9.2374 51.1937C10.0741 52.0305 11.228 52.3477 12.0374 52.1125C12.7429 51.9102 12.989 51.4453 13.0874 51.325L13.1749 51.4125C21.4108 43.1711 38.6265 32.1078 39.9062 31.2875C48.2952 31.1234 55.0874 24.2273 55.0874 15.8C55.0874 7.27422 48.1202 0.3125 39.5999 0.3125ZM39.5999 3.2875C46.5288 3.2875 52.1124 8.86562 52.1124 15.8C52.1124 18.5727 51.221 21.1266 49.7062 23.1938L32.2062 5.69375C34.2733 4.17891 36.8272 3.2875 39.5999 3.2875ZM30.0624 7.70625L47.7374 25.3375C45.5554 27.2023 42.7116 28.3125 39.5999 28.3125C32.6655 28.3125 27.0874 22.7398 27.0874 15.8C27.0874 12.6992 28.2085 9.88828 30.0624 7.70625ZM24.6812 19.8687C26.1304 25.157 30.3194 29.3461 35.6187 30.7625C29.9147 34.525 18.0312 42.6023 11.2937 49.3125C11.2718 49.2852 11.2772 49.2961 11.2062 49.225L6.13115 44.1063C12.978 37.243 20.9679 25.5508 24.6812 19.8687ZM24.4624 29.1437C24.0413 29.1437 23.5983 29.3078 23.2812 29.625L19.5187 33.4312C18.8788 34.0711 18.8788 35.1102 19.5187 35.75L19.6499 35.8812C20.2843 36.5211 21.3288 36.5211 21.9687 35.8812L25.7749 32.075C26.4147 31.4406 26.4093 30.3961 25.7749 29.7563L25.5999 29.625C25.2827 29.3078 24.8835 29.1437 24.4624 29.1437Z"/>

	</symbol>

	<symbol id="possibilitiy-bottle-iron" viewBox="0 0 63 63">
		<path d="M54.908 0.69047C53.2749 0.69047 51.6418 1.30813 50.4065 2.54344L47.9725 4.97742C47.5014 5.44852 47.449 6.19703 47.8521 6.73094L45.0046 9.57844C39.1997 15.3834 34.3579 17.1421 29.4951 18.7648C24.6376 20.3874 19.6754 21.8687 14.5772 26.9723L2.28161 39.2626C0.156455 41.3877 0.156455 44.8738 2.28161 47.0042L9.13864 53.8612L15.9957 60.713C18.1261 62.8434 21.6122 62.8434 23.7373 60.713L36.0276 48.4227C41.1311 43.3245 42.6125 38.3623 44.2299 33.5048C45.8526 28.642 47.6113 23.8002 53.4215 17.9953L56.269 15.1478C56.8029 15.5509 57.5514 15.4985 58.0225 15.0274L60.4565 12.5934C62.9323 10.1176 62.9323 6.06617 60.4565 3.59031L59.4096 2.54344C58.169 1.30813 56.5411 0.685235 54.908 0.69047ZM54.908 3.34953C55.8502 3.35477 56.7924 3.71594 57.52 4.43828L58.5616 5.48516C60.0115 6.93508 60.0115 9.24867 58.5616 10.6986L57.0855 12.1747L53.9554 9.04453C53.9187 9.00789 53.8768 8.97125 53.835 8.93985L50.82 5.92484L52.2961 4.43828C53.0236 3.71594 53.9658 3.34953 54.908 3.34953ZM31.4999 3.36C30.7618 3.36 30.1599 3.96195 30.1599 4.7C30.1599 5.43805 30.7618 6.04 31.4999 6.04C32.2379 6.04 32.8399 5.43805 32.8399 4.7C32.8399 3.96195 32.2379 3.36 31.4999 3.36ZM39.5399 7.38C38.8018 7.38 38.1999 7.98195 38.1999 8.72C38.1999 9.45805 38.8018 10.06 39.5399 10.06C40.2779 10.06 40.8799 9.45805 40.8799 8.72C40.8799 7.98195 40.2779 7.38 39.5399 7.38ZM49.7365 8.63625L54.3636 13.2634L51.5214 16.1005C49.5114 18.1157 47.9725 20.0472 46.7058 21.9263L41.0736 16.2941C42.9527 15.0274 44.8842 13.4885 46.8994 11.4785L49.7365 8.63625ZM38.739 17.7441L45.2558 24.2609C44.1095 26.2918 43.272 28.2442 42.5811 30.1181L35.3105 27.6894L32.8818 20.4188C34.7557 19.7279 36.7081 18.8904 38.739 17.7441ZM30.3536 21.3034L32.9812 29.1759C33.1121 29.5737 33.4261 29.8878 33.824 30.0187L41.6965 32.6463C41.6912 32.6463 41.6912 32.6516 41.6912 32.6516C40.0529 37.5719 38.8176 41.8484 34.138 46.5331L21.8477 58.8234C20.7433 59.9227 18.995 59.9227 17.8905 58.8234L4.17646 45.1094C3.07724 44.0049 3.07724 42.2566 4.17646 41.1522L16.4668 28.8619C21.1515 24.1823 25.428 22.947 30.3483 21.3087C30.3483 21.3087 30.3536 21.3087 30.3536 21.3034ZM56.9599 22.12C56.2218 22.12 55.6199 22.722 55.6199 23.46C55.6199 24.198 56.2218 24.8 56.9599 24.8C57.6979 24.8 58.2999 24.198 58.2999 23.46C58.2999 22.722 57.6979 22.12 56.9599 22.12ZM60.9799 27.48C60.2418 27.48 59.6399 28.082 59.6399 28.82C59.6399 29.558 60.2418 30.16 60.9799 30.16C61.7179 30.16 62.3199 29.558 62.3199 28.82C62.3199 28.082 61.7179 27.48 60.9799 27.48ZM54.2799 30.16C53.5418 30.16 52.9399 30.762 52.9399 31.5C52.9399 32.238 53.5418 32.84 54.2799 32.84C55.0179 32.84 55.6199 32.238 55.6199 31.5C55.6199 30.762 55.0179 30.16 54.2799 30.16ZM28.8199 31.5C27.3386 31.5 26.1399 32.6987 26.1399 34.18C26.1399 35.6613 27.3386 36.86 28.8199 36.86C30.3012 36.86 31.4999 35.6613 31.4999 34.18C31.4999 32.6987 30.3012 31.5 28.8199 31.5ZM18.5082 32.259C18.1575 32.2642 17.8277 32.4055 17.5765 32.6516L9.13864 41.0946C8.61521 41.618 8.61521 42.4712 9.13864 42.9947L20.0052 53.8612C20.5286 54.3794 21.3818 54.3794 21.9053 53.8612L30.3431 45.4182C30.8665 44.8948 30.8665 44.0468 30.3431 43.5234L19.4765 32.6516C19.22 32.4003 18.8693 32.259 18.5082 32.259ZM18.5239 35.4991L27.5008 44.4708L20.9526 51.0137L11.9809 42.0473L18.5239 35.4991Z"/>
	</symbol>

	<symbol id="possibilitiy-money-iron" viewBox="0 0 68 65">
		<path d="M46.58 0.8475L45.815 1.995L33.745 19.3775L23.12 22.5225L23.0775 22.565H23.035C21.6909 23.0697 20.6496 23.9516 19.8475 25.0725L19.805 25.115V25.1575L10.625 39.31L10.285 38.205L1.35996 40.8825L0.0849609 41.3075L0.467461 42.5825L6.58746 63.11L6.96996 64.4275L8.28746 64.045L15.895 61.7075L17.2125 61.325L16.7875 60.05L16.0225 57.4575L26.69 55.0775C29.9678 54.3338 32.9534 52.5647 35.0625 49.85L35.5725 49.2125L40.715 52.825L41.82 53.6325L42.585 52.485L67.235 16.87L68 15.765L66.8525 14.9575L47.685 1.655L46.58 0.8475ZM47.26 4.63L64.2175 16.445L54.485 30.5125C55.7334 26.5334 53.8209 21.7681 49.7675 18.9525C49.7568 18.9472 49.7781 18.9153 49.7675 18.91C49.7568 18.8994 49.7356 18.9206 49.725 18.91C47.3609 17.2419 44.5506 16.5459 41.99 16.785C40.5237 16.9231 39.1478 17.3906 37.9525 18.145L47.26 4.63ZM52.955 12.705C52.2112 12.6997 51.494 13.0662 51.0425 13.725C50.32 14.7769 50.5856 16.19 51.6375 16.9125C52.6893 17.635 54.145 17.3694 54.8675 16.3175C55.59 15.2656 55.3243 13.8525 54.2725 13.13C53.8793 12.8591 53.4012 12.7103 52.955 12.705ZM42.33 19.4625C44.2106 19.2925 46.309 19.8078 48.1525 21.12L48.195 21.1625C52.0465 23.8134 53.194 28.3078 51.255 31.1075H51.2125C50.235 32.6163 48.604 33.4344 46.58 33.53C46.649 31.9734 46.0965 30.4222 44.88 29.28C44.8693 29.2694 44.8481 29.2906 44.8375 29.28C42.9834 27.4472 40.0934 27.1391 37.9525 28.5575C36.6562 26.2253 36.5606 23.6912 37.825 21.885C38.7918 20.4878 40.4493 19.6325 42.33 19.4625ZM31.3225 22.9475L24.82 33.19L24.0975 34.38L25.2875 35.06L29.6225 37.6525L30.43 38.1625L31.195 37.525L38.08 31.9575C38.4306 31.8459 38.7175 31.6016 38.8875 31.2775L39.2275 31.0225C40.3112 30.1194 41.9687 30.1938 42.9675 31.1925V31.235H43.01C44.1256 32.255 44.2265 33.8488 43.265 35.1025L32.9375 48.15C31.2375 50.3334 28.8043 51.8263 26.095 52.4425L15.2575 54.865L11.4325 42.03L11.8575 41.86L12.325 41.69L12.58 41.3075L22.0575 26.6875C22.594 25.9331 23.1465 25.4709 23.9275 25.1575C23.9593 25.1469 23.9806 25.1256 24.0125 25.115L31.3225 22.9475ZM34.425 23.1175C33.899 25.4816 34.4303 28.0475 35.785 30.3L30.2175 34.8475L27.88 33.445L34.425 23.1175ZM51.765 34.465L41.14 49.85L37.23 47.0875L45.39 36.8025V36.76H45.4325C45.56 36.5953 45.6662 36.4253 45.7725 36.25C47.9825 36.3138 50.1128 35.7453 51.765 34.465ZM8.45746 41.5625L13.8125 59.54L8.79746 61.07L3.44246 43.135L8.45746 41.5625Z"/>
	</symbol>

	<symbol id="possibilitiy-present-iron" viewBox="0 0 62 61">
		<path d="M37.8399 0.156876L36.8784 1.11844L32.5168 5.48L37.8399 10.8031L43.1631 5.48L37.8399 0.156876ZM20.8399 3.44C20.4793 3.44004 20.1334 3.58333 19.8783 3.83838C19.6233 4.09342 19.48 4.43932 19.4799 4.8V11.6C19.48 11.9607 19.6233 12.3066 19.8783 12.5616C20.1334 12.8167 20.4793 12.96 20.8399 12.96H22.1999C23.8257 12.96 24.1793 13.4489 24.5268 14.2297C24.8743 15.0105 24.9199 16.1839 24.9199 17.04C24.9199 18.1503 24.7853 19.3177 24.5959 20.44C23.4004 20.0189 22.2532 19.7675 21.1906 19.76C19.9896 19.7514 18.7954 20.0886 17.942 20.942C17.5779 21.3061 17.3339 21.741 17.1451 22.2011L17.1212 22.1931L2.17447 60.0819L41.4153 46.6466L41.4073 46.6227C41.9111 46.4326 42.3845 46.1712 42.7779 45.778C43.7952 44.7607 44.071 43.2943 43.9201 41.8281C43.825 40.9038 43.5573 39.9275 43.171 38.9142C44.2448 38.8492 45.3868 38.8 46.6799 38.8C48.6187 38.8 50.453 39.0345 51.6445 39.4481C52.2402 39.655 52.6599 39.9083 52.8637 40.1016C53.0675 40.2948 53.0788 40.3509 53.0788 40.5V41.52C53.0789 41.8807 53.2222 42.2266 53.4772 42.4816C53.7323 42.7367 54.0782 42.88 54.4388 42.88H60.2799C60.4619 42.8801 60.6421 42.8436 60.8097 42.7728C60.9774 42.7019 61.1291 42.5982 61.2559 42.4676C61.3828 42.3371 61.4821 42.1824 61.548 42.0128C61.614 41.8432 61.6453 41.6621 61.6399 41.4802C61.6399 41.4802 61.5999 39.8042 61.6001 39.7855C61.6001 39.7846 61.6001 39.7837 61.6001 39.7828C61.625 36.6954 59.6803 34.3026 57.281 32.8314C54.8818 31.3602 51.9699 30.64 49.3707 30.64C45.0692 30.64 41.8696 31.7559 39.7285 32.8606C39.0534 31.9437 38.3095 31.0198 37.4973 30.1008C37.9823 29.946 38.4746 29.8019 38.9503 29.6731C39.9084 29.4137 40.8141 29.2011 41.5188 29.0436C42.2236 28.8861 42.6126 28.8185 42.9665 28.7195C44.0644 28.4118 45.5631 28.0357 46.9057 27.1391C48.2484 26.2424 49.3999 24.6297 49.3999 22.48C49.3999 21.8915 49.1146 21.5641 48.9271 21.12H49.3999C52.3074 21.12 54.8399 18.7724 54.8399 15.68V13.81C54.8399 13.81 54.8501 13.6247 54.9781 13.4169C55.106 13.209 55.2083 12.96 56.1999 12.96H57.5599C57.9206 12.96 58.2665 12.8167 58.5216 12.5616C58.7766 12.3066 58.9199 11.9607 58.9199 11.6V6.16266C58.9199 5.80197 58.7766 5.45607 58.5216 5.20103C58.2665 4.94599 57.9206 4.80269 57.5599 4.80266H55.3553C51.7406 4.79961 49.5079 6.47285 48.3135 8.06453C47.428 9.24421 47.1552 10.702 46.9456 11.9533C46.8536 12.5021 46.872 12.5613 46.8313 12.96H46.6799C44.3377 12.96 42.5025 13.809 41.386 15.1488C40.2696 16.4885 39.8799 18.1733 39.8799 19.76V21.6061C37.6509 22.341 35.0981 23.5343 32.902 25.6117C31.6074 24.5108 30.3207 23.5271 29.0584 22.7058C30.4523 20.2479 31.7199 16.9317 31.7199 12.96C31.7199 10.6178 30.9437 8.25266 29.3187 6.44156C27.6937 4.63046 25.2037 3.44 22.099 3.44H22.0963H22.0778H20.8399ZM37.8399 4.00313L39.3168 5.48L37.8399 6.95688L36.3631 5.48L37.8399 4.00313ZM9.27994 5.59688L8.31838 6.55844L3.95682 10.92L9.27994 16.2431L14.6031 10.92L9.27994 5.59688ZM22.1999 6.17859C24.5719 6.20573 26.1924 7.02991 27.2946 8.25844C28.4152 9.50734 28.9999 11.2222 28.9999 12.96C28.9999 15.7916 28.1754 18.1017 27.2149 20.092C27.3676 19.0497 27.6399 18.1279 27.6399 17.04C27.6399 16.1839 27.6856 14.6358 27.0131 13.1247C26.3406 11.6136 24.6541 10.24 22.1999 10.24V6.17859ZM55.3526 7.52266C55.3535 7.52266 55.3544 7.52266 55.3553 7.52266H56.1999V10.24C54.4716 10.24 53.2139 11.096 52.6618 11.9931C52.1097 12.8903 52.1199 13.81 52.1199 13.81V15.68C52.1199 17.3476 50.9125 18.4 49.3999 18.4H46.6799C46.4322 18.4 46.1891 18.4677 45.977 18.5958C45.7649 18.7239 45.5918 18.9075 45.4764 19.1268C45.361 19.3461 45.3077 19.5927 45.3223 19.84C45.3368 20.0874 45.4187 20.3261 45.559 20.5303C45.5595 20.531 45.6651 20.6647 45.6732 20.6737C45.6814 20.6829 45.6867 20.6893 45.6918 20.695C45.7021 20.7063 45.714 20.7181 45.729 20.7348C45.759 20.7684 45.8019 20.8184 45.8538 20.8809C45.9577 21.0059 46.0955 21.1833 46.2284 21.3856C46.4942 21.7902 46.6799 22.2977 46.6799 22.48C46.6799 23.782 46.2185 24.3256 45.3943 24.8759C44.5702 25.4263 43.3482 25.788 42.2334 26.1005C42.2785 26.0878 41.6509 26.2275 40.9238 26.39C40.1968 26.5525 39.2557 26.774 38.241 27.0488C36.683 27.4706 35.1323 28.1476 33.6935 28.8683C35.9711 26.0344 39.0983 24.4931 41.6065 23.7895C41.8923 23.7095 42.1441 23.5382 42.3234 23.3018C42.5028 23.0654 42.5999 22.7768 42.5999 22.48V19.76C42.5999 18.6267 42.8903 17.5915 43.4738 16.8913C44.0574 16.191 44.9422 15.68 46.6799 15.68H48.0399C48.3881 15.6798 48.7229 15.5461 48.9754 15.3064C49.2279 15.0667 49.3789 14.7394 49.3973 14.3917C49.3973 14.3917 49.4467 13.4864 49.6284 12.4022C49.8101 11.318 50.2173 10.054 50.4863 9.69547C50.4872 9.69547 50.4881 9.69547 50.489 9.69547C51.3349 8.56758 52.5002 7.52026 55.3526 7.52266ZM9.27994 9.44313L10.7568 10.92L9.27994 12.3969L7.80307 10.92L9.27994 9.44313ZM56.8799 21.12L53.4799 24.52L56.8799 27.92L60.2773 24.52L56.8799 21.12ZM3.83994 22.48L0.439941 25.88L3.83994 29.28L7.23729 25.88L3.83994 22.48ZM21.1693 22.48C21.8822 22.485 22.8671 22.7455 23.9982 23.2025C23.6093 24.6874 23.2346 25.7822 23.119 26.1323C23.0257 26.4152 23.0279 26.7208 23.1251 27.0023C23.2223 27.2838 23.4093 27.5256 23.6572 27.6906C23.9052 27.8556 24.2004 27.9346 24.4976 27.9156C24.7948 27.8966 25.0776 27.7806 25.3024 27.5853C25.4932 27.4192 25.8272 27.1077 26.434 26.4166C26.7582 26.0473 27.1362 25.5801 27.5337 25.0459C28.6917 25.7727 29.9003 26.6537 31.109 27.6623C30.933 27.9028 30.7492 28.1295 30.5831 28.3875L27.8578 32.6242C27.6889 32.8885 27.6167 33.2031 27.6532 33.5146C27.6897 33.8261 27.8327 34.1154 28.058 34.3335C28.2833 34.5517 28.5771 34.6852 28.8897 34.7116C29.2022 34.738 29.5142 34.6556 29.7729 34.4783L33.8635 31.6547C34.1035 31.489 34.4175 31.3176 34.772 31.1473C35.7475 32.198 36.636 33.2571 37.4123 34.2977C36.9775 34.6319 36.6377 34.9272 36.5729 34.9909C36.572 34.9918 36.5711 34.9927 36.5703 34.9936L33.4837 38.043C33.2615 38.2626 33.1217 38.552 33.0878 38.8626C33.0539 39.1732 33.1279 39.486 33.2974 39.7484C33.467 40.0108 33.7217 40.2068 34.0188 40.3036C34.3158 40.4003 34.6371 40.3918 34.9287 40.2795C34.9287 40.2795 36.7139 39.6018 40.3342 39.1639C40.8331 40.3027 41.1353 41.3227 41.216 42.107C41.3164 43.0824 41.1227 43.5869 40.8548 43.8548C40.7501 43.9595 40.6 44.0469 40.4112 44.1152L40.2731 44.163C40.0317 44.226 39.7267 44.2561 39.3221 44.232C38.4733 44.1814 37.3053 43.8629 35.9832 43.2625C33.3391 42.0617 30.0868 39.7653 27.021 36.6989C23.9552 33.6324 21.6584 30.381 20.4574 27.7367C19.857 26.4146 19.5386 25.2438 19.4879 24.3952C19.4627 23.9734 19.4961 23.6546 19.5649 23.4097C19.573 23.3812 19.5852 23.3619 19.5942 23.3353C19.6633 23.1311 19.755 22.9753 19.8651 22.8652C20.0888 22.6415 20.4554 22.4749 21.1693 22.48ZM17.6896 28.1644C17.7841 28.3964 17.8718 28.6266 17.9792 28.863C19.3683 31.9216 21.8371 35.3605 25.0979 38.622C28.3589 41.8837 31.7983 44.3518 34.857 45.7408C34.9802 45.7967 35.0989 45.8397 35.2209 45.8922L6.86541 55.6008L17.6896 28.1644ZM49.3707 33.36C51.4418 33.36 53.982 33.9988 55.8599 35.1503C57.7379 36.3018 58.896 37.7953 58.8801 39.7589C58.879 39.8636 58.8851 39.9941 58.8881 40.16H55.6474C55.5422 39.3861 55.262 38.6266 54.7363 38.128C54.1228 37.546 53.3683 37.1691 52.5343 36.8795C50.8663 36.3004 48.8212 36.08 46.6799 36.08C43.1798 36.08 40.7852 36.4386 38.7085 36.7786C39.0205 36.4807 42.3746 33.36 49.3707 33.36ZM47.3599 49.1169L46.3984 50.0784L42.0368 54.44L47.3599 59.7631L52.6831 54.44L47.3599 49.1169ZM47.3599 52.9631L48.8368 54.44L47.3599 55.9169L45.8831 54.44L47.3599 52.9631Z"/>
	</symbol>

	<symbol id="hall-name-icon" viewBox="0 0 21 21">
		<path d="M10.0801 0.971252L1.12884 4.23938C0.961494 4.28203 0.840088 4.45266 0.840088 4.62V15.6188L10.0801 12.3113V0.971252ZM10.9201 0.971252V12.3113L13.4401 13.1906V6.12938L17.2201 7.52063V14.5294L20.1601 15.5794V4.62C20.1601 4.45266 20.0387 4.28203 19.8713 4.23938L10.9201 0.971252ZM7.56009 5.88V10.1194L3.78009 11.5894V7.38938L7.56009 5.88ZM10.5001 13.0594L1.18134 16.38L10.3688 20.1206C10.4115 20.1206 10.4558 20.16 10.5395 20.16C10.5821 20.16 10.6674 20.1633 10.7101 20.1206L19.8188 16.38L10.5001 13.0594Z"/>
	</symbol>

	<symbol id="hall-size-icon" viewBox="0 0 17 17">
		<path d="M0.899978 0.899978V5.83998C0.898554 5.94069 0.91716 6.04067 0.954714 6.13413C0.992269 6.22759 1.04802 6.31265 1.11874 6.38437C1.18945 6.45609 1.27371 6.51304 1.36663 6.55191C1.45954 6.59078 1.55926 6.6108 1.65998 6.6108C1.7607 6.6108 1.86041 6.59078 1.95333 6.55191C2.04624 6.51304 2.13051 6.45609 2.20122 6.38437C2.27193 6.31265 2.32769 6.22759 2.36524 6.13413C2.4028 6.04067 2.4214 5.94069 2.41998 5.83998V3.49467L6.63263 7.70732C6.70266 7.78026 6.78655 7.8385 6.87936 7.87861C6.97218 7.91873 7.07207 7.93992 7.17318 7.94095C7.27429 7.94198 7.37459 7.92283 7.46821 7.88461C7.56182 7.84639 7.64687 7.78987 7.71837 7.71837C7.78987 7.64687 7.84639 7.56182 7.88461 7.46821C7.92283 7.37459 7.94198 7.27429 7.94095 7.17318C7.93992 7.07207 7.91873 6.97218 7.87861 6.87936C7.8385 6.78655 7.78026 6.70266 7.70732 6.63263L3.49467 2.41998H5.83998C5.94069 2.4214 6.04067 2.4028 6.13413 2.36524C6.22759 2.32769 6.31265 2.27193 6.38437 2.20122C6.45609 2.13051 6.51304 2.04624 6.55191 1.95333C6.59078 1.86041 6.6108 1.7607 6.6108 1.65998C6.6108 1.55926 6.59078 1.45954 6.55191 1.36663C6.51304 1.27371 6.45609 1.18945 6.38437 1.11874C6.31265 1.04802 6.22759 0.992269 6.13413 0.954714C6.04067 0.91716 5.94069 0.898554 5.83998 0.899978H0.899978ZM11.16 0.899978C11.0593 0.898554 10.9593 0.91716 10.8658 0.954714C10.7724 0.992269 10.6873 1.04802 10.6156 1.11874C10.5439 1.18945 10.4869 1.27371 10.448 1.36663C10.4092 1.45954 10.3892 1.55926 10.3892 1.65998C10.3892 1.7607 10.4092 1.86041 10.448 1.95333C10.4869 2.04624 10.5439 2.13051 10.6156 2.20122C10.6873 2.27193 10.7724 2.32769 10.8658 2.36524C10.9593 2.4028 11.0593 2.4214 11.16 2.41998H13.4734L9.29041 6.63486C9.21781 6.7052 9.15997 6.78932 9.12028 6.88229C9.08059 6.97527 9.05985 7.07522 9.05926 7.17631C9.05867 7.27739 9.07825 7.37758 9.11686 7.471C9.15547 7.56443 9.21232 7.64922 9.2841 7.7204C9.35587 7.79158 9.44113 7.84773 9.53487 7.88556C9.62861 7.9234 9.72896 7.94215 9.83004 7.94072C9.93112 7.9393 10.0309 7.91772 10.1235 7.87726C10.2162 7.83681 10.2998 7.77827 10.3695 7.70509L14.58 3.46275V5.83998C14.5786 5.94069 14.5972 6.04067 14.6347 6.13413C14.6723 6.22759 14.728 6.31265 14.7987 6.38437C14.8694 6.45609 14.9537 6.51304 15.0466 6.55191C15.1395 6.59078 15.2393 6.6108 15.34 6.6108C15.4407 6.6108 15.5404 6.59078 15.6333 6.55191C15.7262 6.51304 15.8105 6.45609 15.8812 6.38437C15.9519 6.31265 16.0077 6.22759 16.0452 6.13413C16.0828 6.04067 16.1014 5.94069 16.1 5.83998V0.899978H11.16ZM7.1581 9.06256C6.96071 9.06766 6.77306 9.14937 6.63486 9.29041L2.41998 13.4734V11.16C2.4214 11.0593 2.4028 10.9593 2.36524 10.8658C2.32769 10.7724 2.27193 10.6873 2.20122 10.6156C2.13051 10.5439 2.04624 10.4869 1.95333 10.448C1.86041 10.4092 1.7607 10.3892 1.65998 10.3892C1.55926 10.3892 1.45954 10.4092 1.36663 10.448C1.27371 10.4869 1.18945 10.5439 1.11874 10.6156C1.04802 10.6873 0.992269 10.7724 0.954714 10.8658C0.91716 10.9593 0.898554 11.0593 0.899978 11.16V16.1H5.83998C5.94069 16.1014 6.04067 16.0828 6.13413 16.0452C6.22759 16.0077 6.31265 15.9519 6.38437 15.8812C6.45609 15.8105 6.51304 15.7262 6.55191 15.6333C6.59078 15.5404 6.6108 15.4407 6.6108 15.34C6.6108 15.2393 6.59078 15.1395 6.55191 15.0466C6.51304 14.9537 6.45609 14.8694 6.38437 14.7987C6.31265 14.728 6.22759 14.6723 6.13413 14.6347C6.04067 14.5972 5.94069 14.5786 5.83998 14.58H3.46275L7.70509 10.3695C7.81536 10.2632 7.89092 10.1261 7.9219 9.97609C7.95287 9.82609 7.93781 9.67023 7.87868 9.52894C7.81954 9.38765 7.71911 9.26753 7.59052 9.1843C7.46194 9.10108 7.31122 9.05864 7.1581 9.06256ZM9.82181 9.06256C9.67069 9.06274 9.52305 9.10798 9.39775 9.19248C9.27246 9.27698 9.1752 9.39692 9.1184 9.53696C9.06161 9.67701 9.04784 9.83081 9.07888 9.97871C9.10991 10.1266 9.18433 10.2619 9.29263 10.3673L13.5053 14.58H11.16C11.0593 14.5786 10.9593 14.5972 10.8658 14.6347C10.7724 14.6723 10.6873 14.728 10.6156 14.7987C10.5439 14.8694 10.4869 14.9537 10.448 15.0466C10.4092 15.1395 10.3892 15.2393 10.3892 15.34C10.3892 15.4407 10.4092 15.5404 10.448 15.6333C10.4869 15.7262 10.5439 15.8105 10.6156 15.8812C10.6873 15.9519 10.7724 16.0077 10.8658 16.0452C10.9593 16.0828 11.0593 16.1014 11.16 16.1H16.1V11.16C16.1014 11.0593 16.0828 10.9593 16.0452 10.8658C16.0077 10.7724 15.9519 10.6873 15.8812 10.6156C15.8105 10.5439 15.7262 10.4869 15.6333 10.448C15.5404 10.4092 15.4407 10.3892 15.34 10.3892C15.2393 10.3892 15.1395 10.4092 15.0466 10.448C14.9537 10.4869 14.8694 10.5439 14.7987 10.6156C14.728 10.6873 14.6723 10.7724 14.6347 10.8658C14.5972 10.9593 14.5786 11.0593 14.58 11.16V13.5053L10.3673 9.29263C10.2964 9.21974 10.2116 9.16182 10.1179 9.1223C10.0242 9.08278 9.92351 9.06246 9.82181 9.06256Z"/>
	</symbol>

	<symbol id="hall-capacity-icon" viewBox="0 0 21 17">
		<path d="M11.3006 0.0999756C7.57641 0.0999756 6.19336 2.97763 7.25812 5.4156C7.12523 5.50419 6.91195 5.78146 6.95625 6.26873C7.04484 7.15466 7.44352 7.3663 7.665 7.4106C7.75359 8.25224 8.2868 9.23333 8.59688 9.36623C8.59688 9.94208 8.58867 10.4244 8.54437 11.0462C7.86516 12.8296 3.52406 12.4161 2.96625 15.6137C2.94164 15.7532 3.08602 16.06 3.37312 16.06H17.64C18.0666 16.06 18.0584 15.745 18.0337 15.6006C17.4661 12.4161 13.1348 12.8279 12.4556 11.0462C12.4113 10.3801 12.4031 9.94208 12.4031 9.36623C12.7132 9.23333 13.207 8.20794 13.2956 7.4106C13.5171 7.4106 13.8715 7.14318 14.0044 6.2556C14.0487 5.76833 13.8666 5.4599 13.6894 5.4156C14.3981 4.52966 14.2702 0.900601 11.655 0.900601L11.3006 0.0999756ZM6.36562 2.19998C3.5618 2.24755 2.33297 4.4788 3.17625 6.38685C3.08602 6.43115 2.90883 6.66576 2.95312 7.06935C3.04336 7.78794 3.31078 7.96185 3.49125 7.96185C3.57984 8.63451 3.97687 9.38919 4.2 9.52373C4.2 9.97162 4.20492 9.95849 4.16062 10.495C3.79641 11.6434 0 11.5581 0 14.38C0 14.38 0 14.8 0.42 14.8H2.32312C2.96461 12.9854 4.70859 12.2865 6.02437 11.7681C6.74953 11.4826 7.49273 11.1939 7.7175 10.8362C7.74211 10.4458 7.75523 10.1144 7.75687 9.74685C7.3582 9.29076 7.06125 8.58037 6.91687 7.97498C6.57562 7.72232 6.20648 7.23669 6.11625 6.33435C6.07687 5.90615 6.16711 5.55013 6.31312 5.27123C5.98008 4.23599 6.00141 3.15482 6.36562 2.19998ZM15.96 2.19998C15.558 2.19998 15.0839 2.23279 14.6344 2.30498C14.9707 3.29099 14.9838 4.46896 14.6869 5.3106C14.8181 5.59935 14.8788 5.95044 14.8444 6.33435L14.8312 6.3606V6.38685C14.7066 7.21208 14.403 7.71412 14.0437 7.9881C13.9076 8.55576 13.6303 9.27271 13.2431 9.73373C13.2448 10.0947 13.2579 10.4195 13.2825 10.8362C13.5073 11.1939 14.2521 11.4826 14.9756 11.7681C16.2898 12.2849 18.0337 12.9854 18.6769 14.8H20.58C21 14.8 21 14.3931 21 14.3931C21.0016 11.1447 17.4054 11.9141 16.8656 10.4293C16.8197 9.93388 16.8131 9.97982 16.8131 9.48435C17.0379 9.34982 17.4513 8.59349 17.4956 7.96185C17.6761 7.96185 17.9435 7.77646 18.0337 7.05623C18.078 6.69693 17.9452 6.43115 17.8106 6.38685C18.352 5.66662 18.2634 2.82998 16.2356 2.82998L15.96 2.19998Z"/>
	</symbol>

	<symbol id="advantage-coat" viewBox="0 0 80 78" >
		<path d="M40 0.599976C34.45 0.599976 31.0188 1.83123 30.1 2.19998C29.9375 2.24373 29.7875 2.31248 29.65 2.39998C29.6313 2.39998 29.6188 2.39998 29.6 2.39998C29.5688 2.41248 29.5312 2.43123 29.5 2.44998C29.4813 2.46873 29.4688 2.48123 29.45 2.49998C29.4188 2.51248 29.3813 2.53123 29.35 2.54998C29.3312 2.56873 29.3188 2.58123 29.3 2.59998C29.2438 2.64373 29.1938 2.69373 29.15 2.74998C29.1313 2.78123 29.1125 2.81873 29.1 2.84998C29.0812 2.86873 29.0688 2.88123 29.05 2.89998C29.0312 2.93123 29.0125 2.96873 29 2.99998L26.15 7.19998L18.85 9.54998C18.75 9.57498 18.6438 9.60623 18.55 9.64998C17.1313 10.1125 15.4563 11.1625 13.6 13.05C11.575 15.1125 9.45 18.1125 7.9 22.3C6.7 25.5375 4.7625 30.6187 3.1 35.25C2.26875 37.5687 1.50625 39.7375 0.95 41.6C0.39375 43.4625 0 44.8625 0 46.1V69.4C0 70.2812 0.71875 71 1.6 71H12.8C13.6812 71 14.4 70.2812 14.4 69.4V47.05C14.4 47.0562 14.4 47.05 14.4 47C14.4125 46.925 14.4563 46.7375 14.55 46.5C14.7 46.1187 14.9563 45.625 15.25 45.05C15.8313 43.8937 16.6438 42.4562 17.45 41.1C17.525 40.9687 17.525 40.9812 17.6 40.85V75.8C17.6 76.6812 18.3188 77.4 19.2 77.4H60.8C61.6813 77.4 62.4 76.6812 62.4 75.8L62.3 43.95V43.9L62.35 40.75C62.4562 40.925 62.4438 40.9187 62.55 41.1C63.3563 42.4562 64.1688 43.8937 64.75 45.05C65.0438 45.625 65.3 46.1187 65.45 46.5C65.5625 46.7875 65.5938 47.025 65.6 47.05V69.4C65.6 70.2812 66.3187 71 67.2 71H78.4C79.2812 71 80 70.2812 80 69.4V46.1C80 44.8625 79.6063 43.4625 79.05 41.6C78.4938 39.7375 77.7313 37.5687 76.9 35.25C75.2375 30.6187 73.3 25.5375 72.1 22.3C70.55 18.1125 68.425 15.1125 66.4 13.05C64.525 11.1437 62.8312 10.1 61.4 9.64998C61.3188 9.61248 61.2375 9.57498 61.15 9.54998L53.85 7.19998L51.05 3.04998C51.0188 2.99998 50.9875 2.94998 50.95 2.89998C50.9188 2.86248 50.8875 2.83123 50.85 2.79998C50.85 2.78123 50.85 2.76873 50.85 2.74998C50.7 2.58123 50.5125 2.44373 50.3 2.34998C50.3 2.34998 50.2562 2.29998 50.25 2.29998C50.1562 2.25623 50.05 2.22498 49.95 2.19998C49.1125 1.86248 45.6562 0.599976 40 0.599976ZM40 3.79998C43.8812 3.79998 46.3563 4.36873 47.7 4.79998C47.4688 5.61248 47.1063 6.66873 46.45 7.79998C45.225 9.91248 43.4062 11.8 40 11.8C36.5938 11.8 34.775 9.91248 33.55 7.79998C32.8937 6.66873 32.5312 5.61248 32.3 4.79998C33.6437 4.36873 36.1188 3.79998 40 3.79998ZM29.95 7.39998C30.2188 8.06873 30.3813 8.67498 30.8 9.39998C31.7812 11.0937 33.325 12.9125 35.5 14L31.25 18.25L28.95 8.94998L29.95 7.39998ZM50.05 7.39998L51.05 8.94998L48.75 18.25L44.5 14C46.675 12.9125 48.2188 11.0937 49.2 9.39998C49.6188 8.67498 49.7812 8.06873 50.05 7.39998ZM26.05 10.65L28.85 21.8C28.9875 22.3687 29.4188 22.8187 29.9813 22.975C30.5375 23.125 31.1438 22.9687 31.55 22.55L39.2 14.9C39.4688 14.9187 39.7188 15 40 15C40.2812 15 40.5312 14.9187 40.8 14.9L48.45 22.55C48.8563 22.9687 49.4625 23.125 50.0187 22.975C50.5812 22.8187 51.0125 22.3687 51.15 21.8L53.95 10.65L58.9 12.2C58.6875 13.2125 58.1938 15.4187 57.85 19.65C57.475 24.2812 57.525 29.9437 58.95 34.9C58.9625 34.95 58.9813 35 59 35.05C59.0063 35.0625 58.9938 35.0875 59 35.1C59.025 35.2562 59.075 35.4062 59.15 35.55C59.175 35.6312 59.175 35.7187 59.2 35.8L59.1 43.9L59.2 74.2H20.8V36C23.0938 31.6625 23.0125 25.6687 22.5 20.5C22.0438 15.9375 21.4 13.2812 21.15 12.2L26.05 10.65ZM18.2 13.45C18.5625 15.125 19.025 17.5375 19.35 20.8C19.7875 25.2062 19.6812 30.2875 18.5 33.55C18.2875 33.7062 18.1125 33.9125 18 34.15C18 34.15 16.35 36.7187 14.7 39.5C13.875 40.8937 13.0375 42.3312 12.4 43.6C12.0813 44.2375 11.8062 44.8125 11.6 45.35C11.3938 45.8875 11.2 46.3062 11.2 47V67.8H3.2V46.1C3.2 45.7875 3.46875 44.3187 4 42.55C4.53125 40.7812 5.28125 38.5875 6.1 36.3C7.74375 31.725 9.68125 26.7375 10.9 23.45C12.3 19.6812 14.1938 17.0375 15.9 15.3C16.7125 14.475 17.5375 13.8937 18.2 13.45ZM61.85 13.45C62.5063 13.8875 63.3 14.4875 64.1 15.3C65.8063 17.0375 67.7 19.6812 69.1 23.45C70.3187 26.7375 72.2562 31.725 73.9 36.3C74.7188 38.5875 75.4688 40.7812 76 42.55C76.5312 44.3187 76.8 45.7875 76.8 46.1V67.8H68.8V47C68.8 46.3062 68.6062 45.8875 68.4 45.35C68.1937 44.8125 67.9188 44.2375 67.6 43.6C66.9625 42.3312 66.125 40.8937 65.3 39.5C63.65 36.7187 62 34.15 62 34.15C61.9562 34.0625 61.9062 33.9812 61.85 33.9C60.6688 29.6187 60.6938 24.2875 61.05 19.9C61.2812 17.0812 61.5812 14.975 61.85 13.45Z" fill="url(#paint0_linear_51_1129)"/>
		<defs>
			<linearGradient id="paint0_linear_51_1129" x1="40" y1="0.599976" x2="40" y2="77.4" gradientUnits="userSpaceOnUse">
				<stop stop-color="#FFC619"/>
				<stop offset="0.489583" stop-color="#F69020"/>
				<stop offset="1" stop-color="#EA422A"/>
			</linearGradient>
		</defs>
	</symbol>

	<symbol id="advantage-record" viewBox="0 0 80 80" >
		<path d="M40.0001 0.450073C18.1786 0.450073 0.450195 18.1784 0.450195 40C0.450195 61.8215 18.1786 79.5499 40.0001 79.5499C61.8217 79.5499 79.55 61.8215 79.55 40C79.55 18.1784 61.8217 0.450073 40.0001 0.450073ZM40.0001 3.86992C44.4527 3.86992 48.7117 4.67865 52.6482 6.14757L44.4815 25.2019C43.0614 24.7703 41.5584 24.5301 40.0001 24.5301C31.4775 24.5301 24.5302 31.4774 24.5302 40C24.5302 41.5583 24.7704 43.0613 25.2021 44.4814L6.1477 52.648C4.67877 48.7116 3.87004 44.4526 3.87004 40C3.87004 20.0256 20.0257 3.86992 40.0001 3.86992ZM55.7791 7.52828C63.0499 11.0638 68.9363 16.9502 72.4718 24.221L53.441 32.3776C52.0598 29.9545 50.0456 27.9403 47.6225 26.5591L55.7791 7.52828ZM73.8525 27.3519C75.3215 31.2884 76.1302 35.5474 76.1302 40C76.1302 59.9744 59.9746 76.1301 40.0001 76.1301C35.5475 76.1301 31.2885 75.3213 27.3521 73.8524L35.5187 54.798C36.9388 55.2297 38.4418 55.4699 40.0001 55.4699C48.5227 55.4699 55.47 48.5226 55.47 40C55.47 38.4417 55.2298 36.9387 54.7982 35.5186L73.8525 27.3519ZM40.0001 27.9499C46.6754 27.9499 52.0502 33.3247 52.0502 40C52.0502 46.6753 46.6754 52.0501 40.0001 52.0501C33.3248 52.0501 27.95 46.6753 27.95 40C27.95 33.3247 33.3248 27.9499 40.0001 27.9499ZM40.0001 34.84C37.1501 34.84 34.8401 37.15 34.8401 40C34.8401 42.85 37.1501 45.16 40.0001 45.16C42.8502 45.16 45.1601 42.85 45.1601 40C45.1601 37.15 42.8502 34.84 40.0001 34.84ZM26.5593 47.6224C27.9404 50.0455 29.9546 52.0597 32.3777 53.4409L24.2211 72.4717C16.9503 68.9362 11.0639 63.0498 7.5284 55.779L26.5593 47.6224Z" fill="url(#paint0_linear_51_1145)"/>
		<defs>
			<linearGradient id="paint0_linear_51_1145" x1="40.0001" y1="0.450073" x2="40.0001" y2="79.5499" gradientUnits="userSpaceOnUse">
				<stop stop-color="#FFC619"/>
				<stop offset="0.5" stop-color="#F69020"/>
				<stop offset="1" stop-color="#EA422A"/>
			</linearGradient>
		</defs>
	</symbol>

	<symbol id="advantage-people" viewBox="0 0 74 74" >
		<path d="M69.0999 0.899958C66.9374 0.806208 64.9124 2.24371 64.3499 4.39996L62.1499 12.95L56.1499 21.6L46.5999 23.75C44.9811 24.1187 43.4999 24.9562 42.3999 26.2L35.7999 33.55C34.9624 34.4812 34.3249 35.6375 33.9999 36.85L31.7499 45.35C31.1374 47.6312 32.4749 50.0187 34.7499 50.65C36.9999 51.275 39.3749 49.9375 40.0499 47.7L42.2999 40.25L45.8499 36.7C45.8186 37.6625 46.0561 38.3 45.8499 39.3C45.4124 41.4562 44.7499 43.25 44.7499 43.25L38.5499 55.2C38.2124 55.85 37.9499 56.5437 37.7999 57.25L35.5499 68.1C34.9311 71.0375 37.1999 73.9 40.1999 73.9H40.6999C42.9624 73.9 44.9499 72.2625 45.3999 70.05L47.4999 59.7L52.8499 50.1L57.1999 55.75L58.7499 69.65C59.0186 72.0562 61.0811 73.9 63.4999 73.9C66.3061 73.9 68.5374 71.3937 68.2499 68.6L66.7499 53.8C66.6561 52.9 66.3874 52.0187 65.9999 51.2L61.4499 41.6C61.7936 40.65 63.4999 35.5375 62.8999 29.8L70.3999 17.15C70.4624 17.0375 70.5124 16.925 70.5499 16.8L73.3999 6.84996C74.1249 4.32496 72.5999 1.68746 70.0499 1.04996C69.7436 0.974958 69.4061 0.912459 69.0999 0.899958ZM27.7999 1.39996C27.2124 1.41246 26.6124 1.53746 26.0499 1.79996C23.9436 2.77496 22.9374 5.24371 23.7999 7.39996L26.5999 14.5L22.0499 22.6L14.3999 23.65L9.59989 18.15L9.84989 15.95C10.1374 19.65 13.2311 22.6 16.9999 22.6C20.9561 22.6 24.1999 19.3562 24.1999 15.4C24.1999 11.4437 20.9561 8.19996 16.9999 8.19996C13.8124 8.19996 11.0874 10.3125 10.1499 13.2L10.5999 9.44996C10.8936 6.94996 8.96239 4.68121 6.44989 4.54996H6.09989C3.78739 4.43121 1.74364 6.14371 1.49988 8.44996L0.349885 19.2C0.187386 20.7125 0.631135 22.1875 1.54989 23.4L9.29989 33.65L6.49989 39.85C5.36239 42.3562 4.91239 45.1125 5.19989 47.85L7.44989 69.35C7.71239 71.85 9.83739 73.8 12.3499 73.8C15.2124 73.8 17.4874 71.3062 17.2499 68.45L15.6499 49.2L15.8499 49.05L20.8499 56.05L18.2999 68C17.6624 70.9562 19.9749 73.8 22.9999 73.8C25.1749 73.8 27.0561 72.3125 27.5999 70.2L30.9999 57.15C31.3999 55.6 31.1999 53.9687 30.4499 52.55L25.0999 42.4L27.6499 31L35.3499 18.1C36.1811 16.7062 36.3561 15.0062 35.7499 13.5L31.9499 4.14996C31.4874 2.99371 30.5811 2.12496 29.4999 1.69996C28.9624 1.48746 28.3874 1.38746 27.7999 1.39996ZM68.6499 4.09996C68.8374 4.07496 69.0499 4.09996 69.2499 4.14996C70.0811 4.35621 70.5374 5.17496 70.2999 5.99996L67.4499 15.9L59.9499 28.55C59.7499 28.8625 59.6561 29.2312 59.6999 29.6C60.4499 34.95 58.2499 41.2 58.2499 41.2C58.0936 41.6062 58.1124 42.0562 58.2999 42.45L63.0999 52.55C63.3311 53.0437 63.4936 53.6062 63.5499 54.15L65.0499 68.95C65.1499 69.9062 64.4624 70.7 63.4999 70.7C62.6811 70.7 62.0436 70.1125 61.9499 69.3L60.2999 54.9C60.2749 54.6125 60.1686 54.3375 59.9999 54.1L53.9499 46.25C53.6311 45.8062 53.1061 45.55 52.5561 45.5812C52.0124 45.6125 51.5186 45.9187 51.2499 46.4L44.5999 58.3C44.5249 58.4437 44.4749 58.5937 44.4499 58.75L42.2499 69.4C42.0999 70.1437 41.4561 70.7 40.6999 70.7H40.1999C39.1624 70.7 38.4374 69.8187 38.6499 68.8L40.9499 57.9C41.0436 57.4687 41.1999 57.0312 41.3999 56.65L47.6999 44.5C47.7374 44.4375 47.7686 44.3687 47.7999 44.3C47.7999 44.3 48.5124 42.3562 48.9999 39.95C49.4874 37.5437 49.9499 34.7312 48.7999 32.35C48.5749 31.8875 48.1436 31.5625 47.6374 31.475C47.1374 31.3875 46.6186 31.5437 46.2499 31.9L39.7999 38.2C39.6061 38.3937 39.4686 38.6375 39.3999 38.9L36.9999 46.8C36.8186 47.4062 36.2061 47.7187 35.5999 47.55C34.9874 47.3812 34.6811 46.7687 34.8499 46.15L37.0999 37.65C37.2936 36.925 37.6436 36.2625 38.1499 35.7L44.7999 28.35C44.7999 28.3312 44.7999 28.3187 44.7999 28.3C45.4561 27.5625 46.3311 27.0687 47.2999 26.85L57.4499 24.55C57.8561 24.4687 58.2124 24.2375 58.4499 23.9L64.9499 14.5C65.0686 14.3312 65.1499 14.15 65.1999 13.95L67.4499 5.19996C67.6061 4.59371 68.0811 4.18121 68.6499 4.09996ZM27.8999 4.59996C28.3749 4.58746 28.7999 4.86246 28.9999 5.34996L32.7499 14.7C32.9811 15.2812 32.9186 15.9125 32.5999 16.45L24.7499 29.6C24.6624 29.7375 24.5936 29.8875 24.5499 30.05L21.7999 42.25C21.7186 42.625 21.7686 43.0125 21.9499 43.35L27.6499 54.05C28.0249 54.7562 28.0999 55.575 27.8999 56.35L24.4999 69.4C24.3124 70.1125 23.7374 70.6 22.9999 70.6C21.9436 70.6 21.1749 69.6812 21.3999 68.65L24.1499 56.05C24.2436 55.6187 24.1499 55.1625 23.8999 54.8L17.4999 45.85C17.2499 45.5 16.8686 45.2687 16.4499 45.2062C16.0249 45.1375 15.5936 45.2437 15.2499 45.5L12.9999 47.25C12.5749 47.5875 12.3499 48.1125 12.3999 48.65L14.0999 68.7C14.1874 69.7375 13.3874 70.6 12.3499 70.6C11.4499 70.6 10.6936 69.95 10.5999 69.05L8.39989 47.5C8.17489 45.325 8.49364 43.1375 9.39989 41.15L12.5999 34.1C12.8436 33.5812 12.7811 32.9687 12.4499 32.5L4.09989 21.5C3.67489 20.9375 3.47488 20.2 3.54989 19.5L4.69989 8.79996C4.76864 8.15621 5.25613 7.71871 5.89989 7.74996H6.29989C7.01239 7.78746 7.48113 8.39371 7.39989 9.09996L6.29989 18.45C6.24989 18.9062 6.39364 19.3625 6.69989 19.7L12.5999 26.4C12.9561 26.8187 13.5061 27.0312 14.0499 26.95L23.2999 25.65C23.7874 25.575 24.2124 25.2812 24.4499 24.85L29.7999 15.35C30.0311 14.9375 30.0686 14.4437 29.8999 14L26.7999 6.19996C26.5561 5.59371 26.8124 4.97496 27.3999 4.69996C27.5561 4.62496 27.7436 4.60621 27.8999 4.59996ZM48.9999 8.19996C45.0436 8.19996 41.7999 11.4437 41.7999 15.4C41.7999 19.3562 45.0436 22.6 48.9999 22.6C52.9561 22.6 56.1999 19.3562 56.1999 15.4C56.1999 11.4437 52.9561 8.19996 48.9999 8.19996ZM16.9999 11.4C19.2249 11.4 20.9999 13.175 20.9999 15.4C20.9999 17.625 19.2249 19.4 16.9999 19.4C14.7749 19.4 12.9999 17.625 12.9999 15.4C12.9999 13.175 14.7749 11.4 16.9999 11.4ZM48.9999 11.4C51.2249 11.4 52.9999 13.175 52.9999 15.4C52.9999 17.625 51.2249 19.4 48.9999 19.4C46.7749 19.4 44.9999 17.625 44.9999 15.4C44.9999 13.175 46.7749 11.4 48.9999 11.4Z" fill="url(#paint0_linear_51_1155)"/>
		<defs>
			<linearGradient id="paint0_linear_51_1155" x1="36.9487" y1="0.89563" x2="36.9487" y2="73.9" gradientUnits="userSpaceOnUse">
				<stop stop-color="#FFC619"/>
				<stop offset="0.489583" stop-color="#F69020"/>
				<stop offset="1" stop-color="#EA422A"/>
			</linearGradient>
		</defs>
	</symbol>

	<symbol id="advantage-target" viewBox="0 0 80 80" >
		<path d="M39.9999 0.439941C18.1869 0.439941 0.439941 18.1869 0.439941 39.9999C0.439941 61.813 18.1869 79.5599 39.9999 79.5599C61.813 79.5599 79.5599 61.813 79.5599 39.9999C79.5599 32.0931 77.2201 24.7255 73.2074 18.5369L71.6721 20.0721L70.6912 21.0531C74.1105 26.5691 76.1199 33.046 76.1199 39.9999C76.1199 59.9175 59.9175 76.1199 39.9999 76.1199C20.0823 76.1199 3.87994 59.9175 3.87994 39.9999C3.87994 20.0823 20.0823 3.87994 39.9999 3.87994C48.4509 3.87994 56.2029 6.83394 62.3599 11.7174V15.2078L58.1708 19.3969C53.3198 15.1071 46.9692 12.4799 39.9999 12.4799C24.8261 12.4799 12.4799 24.8261 12.4799 39.9999C12.4799 55.1738 24.8261 67.5199 39.9999 67.5199C55.1738 67.5199 67.5199 55.1738 67.5199 39.9999C67.5199 34.2741 65.7578 28.9518 62.753 24.5435L60.2603 27.0361C62.6649 30.784 64.0799 35.2252 64.0799 39.9999C64.0799 53.2783 53.2783 64.0799 39.9999 64.0799C26.7215 64.0799 15.9199 53.2783 15.9199 39.9999C15.9199 26.7215 26.7215 15.9199 39.9999 15.9199C46.0222 15.9199 51.5155 18.1589 55.7386 21.8291L49.638 27.9297C46.9915 25.807 43.649 24.5199 39.9999 24.5199C31.4653 24.5199 24.5199 31.4653 24.5199 39.9999C24.5199 48.5346 31.4653 55.4799 39.9999 55.4799C48.5346 55.4799 55.4799 48.5346 55.4799 39.9999C55.4799 37.6143 54.9214 35.3643 53.9548 33.345L51.3311 35.9653C51.7817 37.2278 52.0399 38.5844 52.0399 39.9999C52.0399 46.6391 46.6391 52.0399 39.9999 52.0399C33.3607 52.0399 27.9599 46.6391 27.9599 39.9999C27.9599 33.3607 33.3607 27.9599 39.9999 27.9599C42.7003 27.9599 45.186 28.8647 47.1957 30.372L40.8868 36.6809C40.5977 36.6021 40.2996 36.5615 39.9999 36.5599C39.0876 36.5599 38.2126 36.9224 37.5675 37.5675C36.9224 38.2126 36.5599 39.0876 36.5599 39.9999C36.5599 40.9123 36.9224 41.7873 37.5675 42.4324C38.2126 43.0775 39.0876 43.4399 39.9999 43.4399C40.9123 43.4399 41.7873 43.0775 42.4324 42.4324C43.0775 41.7873 43.4399 40.9123 43.4399 39.9999C43.4398 39.6993 43.4003 39.4 43.3224 39.1097L64.7921 17.6399H69.2399L77.8399 9.03994H70.9599V2.15994L64.2983 8.82158C57.5867 3.57781 49.1578 0.439941 39.9999 0.439941Z" fill="url(#paint0_linear_51_1175)"/>
		<defs>
			<linearGradient id="paint0_linear_51_1175" x1="39.9999" y1="0.439941" x2="39.9999" y2="79.5599" gradientUnits="userSpaceOnUse">
				<stop stop-color="#FFC619"/>
				<stop offset="0.479167" stop-color="#F69020"/>
				<stop offset="1" stop-color="#EA422A"/>
			</linearGradient>
		</defs>
	</symbol>

	<symbol id="advantage-coat-iron" viewBox="0 0 80 78" >
		<path d="M40 0.599976C34.45 0.599976 31.0188 1.83123 30.1 2.19998C29.9375 2.24373 29.7875 2.31248 29.65 2.39998C29.6313 2.39998 29.6188 2.39998 29.6 2.39998C29.5688 2.41248 29.5312 2.43123 29.5 2.44998C29.4813 2.46873 29.4688 2.48123 29.45 2.49998C29.4188 2.51248 29.3813 2.53123 29.35 2.54998C29.3312 2.56873 29.3188 2.58123 29.3 2.59998C29.2438 2.64373 29.1938 2.69373 29.15 2.74998C29.1313 2.78123 29.1125 2.81873 29.1 2.84998C29.0812 2.86873 29.0688 2.88123 29.05 2.89998C29.0312 2.93123 29.0125 2.96873 29 2.99998L26.15 7.19998L18.85 9.54998C18.75 9.57498 18.6438 9.60623 18.55 9.64998C17.1313 10.1125 15.4563 11.1625 13.6 13.05C11.575 15.1125 9.45 18.1125 7.9 22.3C6.7 25.5375 4.7625 30.6187 3.1 35.25C2.26875 37.5687 1.50625 39.7375 0.95 41.6C0.39375 43.4625 0 44.8625 0 46.1V69.4C0 70.2812 0.71875 71 1.6 71H12.8C13.6812 71 14.4 70.2812 14.4 69.4V47.05C14.4 47.0562 14.4 47.05 14.4 47C14.4125 46.925 14.4563 46.7375 14.55 46.5C14.7 46.1187 14.9563 45.625 15.25 45.05C15.8313 43.8937 16.6438 42.4562 17.45 41.1C17.525 40.9687 17.525 40.9812 17.6 40.85V75.8C17.6 76.6812 18.3188 77.4 19.2 77.4H60.8C61.6813 77.4 62.4 76.6812 62.4 75.8L62.3 43.95V43.9L62.35 40.75C62.4562 40.925 62.4438 40.9187 62.55 41.1C63.3563 42.4562 64.1688 43.8937 64.75 45.05C65.0438 45.625 65.3 46.1187 65.45 46.5C65.5625 46.7875 65.5938 47.025 65.6 47.05V69.4C65.6 70.2812 66.3187 71 67.2 71H78.4C79.2812 71 80 70.2812 80 69.4V46.1C80 44.8625 79.6063 43.4625 79.05 41.6C78.4938 39.7375 77.7313 37.5687 76.9 35.25C75.2375 30.6187 73.3 25.5375 72.1 22.3C70.55 18.1125 68.425 15.1125 66.4 13.05C64.525 11.1437 62.8312 10.1 61.4 9.64998C61.3188 9.61248 61.2375 9.57498 61.15 9.54998L53.85 7.19998L51.05 3.04998C51.0188 2.99998 50.9875 2.94998 50.95 2.89998C50.9188 2.86248 50.8875 2.83123 50.85 2.79998C50.85 2.78123 50.85 2.76873 50.85 2.74998C50.7 2.58123 50.5125 2.44373 50.3 2.34998C50.3 2.34998 50.2562 2.29998 50.25 2.29998C50.1562 2.25623 50.05 2.22498 49.95 2.19998C49.1125 1.86248 45.6562 0.599976 40 0.599976ZM40 3.79998C43.8812 3.79998 46.3563 4.36873 47.7 4.79998C47.4688 5.61248 47.1063 6.66873 46.45 7.79998C45.225 9.91248 43.4062 11.8 40 11.8C36.5938 11.8 34.775 9.91248 33.55 7.79998C32.8937 6.66873 32.5312 5.61248 32.3 4.79998C33.6437 4.36873 36.1188 3.79998 40 3.79998ZM29.95 7.39998C30.2188 8.06873 30.3813 8.67498 30.8 9.39998C31.7812 11.0937 33.325 12.9125 35.5 14L31.25 18.25L28.95 8.94998L29.95 7.39998ZM50.05 7.39998L51.05 8.94998L48.75 18.25L44.5 14C46.675 12.9125 48.2188 11.0937 49.2 9.39998C49.6188 8.67498 49.7812 8.06873 50.05 7.39998ZM26.05 10.65L28.85 21.8C28.9875 22.3687 29.4188 22.8187 29.9813 22.975C30.5375 23.125 31.1438 22.9687 31.55 22.55L39.2 14.9C39.4688 14.9187 39.7188 15 40 15C40.2812 15 40.5312 14.9187 40.8 14.9L48.45 22.55C48.8563 22.9687 49.4625 23.125 50.0187 22.975C50.5812 22.8187 51.0125 22.3687 51.15 21.8L53.95 10.65L58.9 12.2C58.6875 13.2125 58.1938 15.4187 57.85 19.65C57.475 24.2812 57.525 29.9437 58.95 34.9C58.9625 34.95 58.9813 35 59 35.05C59.0063 35.0625 58.9938 35.0875 59 35.1C59.025 35.2562 59.075 35.4062 59.15 35.55C59.175 35.6312 59.175 35.7187 59.2 35.8L59.1 43.9L59.2 74.2H20.8V36C23.0938 31.6625 23.0125 25.6687 22.5 20.5C22.0438 15.9375 21.4 13.2812 21.15 12.2L26.05 10.65ZM18.2 13.45C18.5625 15.125 19.025 17.5375 19.35 20.8C19.7875 25.2062 19.6812 30.2875 18.5 33.55C18.2875 33.7062 18.1125 33.9125 18 34.15C18 34.15 16.35 36.7187 14.7 39.5C13.875 40.8937 13.0375 42.3312 12.4 43.6C12.0813 44.2375 11.8062 44.8125 11.6 45.35C11.3938 45.8875 11.2 46.3062 11.2 47V67.8H3.2V46.1C3.2 45.7875 3.46875 44.3187 4 42.55C4.53125 40.7812 5.28125 38.5875 6.1 36.3C7.74375 31.725 9.68125 26.7375 10.9 23.45C12.3 19.6812 14.1938 17.0375 15.9 15.3C16.7125 14.475 17.5375 13.8937 18.2 13.45ZM61.85 13.45C62.5063 13.8875 63.3 14.4875 64.1 15.3C65.8063 17.0375 67.7 19.6812 69.1 23.45C70.3187 26.7375 72.2562 31.725 73.9 36.3C74.7188 38.5875 75.4688 40.7812 76 42.55C76.5312 44.3187 76.8 45.7875 76.8 46.1V67.8H68.8V47C68.8 46.3062 68.6062 45.8875 68.4 45.35C68.1937 44.8125 67.9188 44.2375 67.6 43.6C66.9625 42.3312 66.125 40.8937 65.3 39.5C63.65 36.7187 62 34.15 62 34.15C61.9562 34.0625 61.9062 33.9812 61.85 33.9C60.6688 29.6187 60.6938 24.2875 61.05 19.9C61.2812 17.0812 61.5812 14.975 61.85 13.45Z"/>
	</symbol>

	<symbol id="advantage-record-iron" viewBox="0 0 80 80" >
		<path d="M40.0001 0.450073C18.1786 0.450073 0.450195 18.1784 0.450195 40C0.450195 61.8215 18.1786 79.5499 40.0001 79.5499C61.8217 79.5499 79.55 61.8215 79.55 40C79.55 18.1784 61.8217 0.450073 40.0001 0.450073ZM40.0001 3.86992C44.4527 3.86992 48.7117 4.67865 52.6482 6.14757L44.4815 25.2019C43.0614 24.7703 41.5584 24.5301 40.0001 24.5301C31.4775 24.5301 24.5302 31.4774 24.5302 40C24.5302 41.5583 24.7704 43.0613 25.2021 44.4814L6.1477 52.648C4.67877 48.7116 3.87004 44.4526 3.87004 40C3.87004 20.0256 20.0257 3.86992 40.0001 3.86992ZM55.7791 7.52828C63.0499 11.0638 68.9363 16.9502 72.4718 24.221L53.441 32.3776C52.0598 29.9545 50.0456 27.9403 47.6225 26.5591L55.7791 7.52828ZM73.8525 27.3519C75.3215 31.2884 76.1302 35.5474 76.1302 40C76.1302 59.9744 59.9746 76.1301 40.0001 76.1301C35.5475 76.1301 31.2885 75.3213 27.3521 73.8524L35.5187 54.798C36.9388 55.2297 38.4418 55.4699 40.0001 55.4699C48.5227 55.4699 55.47 48.5226 55.47 40C55.47 38.4417 55.2298 36.9387 54.7982 35.5186L73.8525 27.3519ZM40.0001 27.9499C46.6754 27.9499 52.0502 33.3247 52.0502 40C52.0502 46.6753 46.6754 52.0501 40.0001 52.0501C33.3248 52.0501 27.95 46.6753 27.95 40C27.95 33.3247 33.3248 27.9499 40.0001 27.9499ZM40.0001 34.84C37.1501 34.84 34.8401 37.15 34.8401 40C34.8401 42.85 37.1501 45.16 40.0001 45.16C42.8502 45.16 45.1601 42.85 45.1601 40C45.1601 37.15 42.8502 34.84 40.0001 34.84ZM26.5593 47.6224C27.9404 50.0455 29.9546 52.0597 32.3777 53.4409L24.2211 72.4717C16.9503 68.9362 11.0639 63.0498 7.5284 55.779L26.5593 47.6224Z"/>
	</symbol>

	<symbol id="advantage-people-iron" viewBox="0 0 74 74" >
		<path d="M69.0999 0.899958C66.9374 0.806208 64.9124 2.24371 64.3499 4.39996L62.1499 12.95L56.1499 21.6L46.5999 23.75C44.9811 24.1187 43.4999 24.9562 42.3999 26.2L35.7999 33.55C34.9624 34.4812 34.3249 35.6375 33.9999 36.85L31.7499 45.35C31.1374 47.6312 32.4749 50.0187 34.7499 50.65C36.9999 51.275 39.3749 49.9375 40.0499 47.7L42.2999 40.25L45.8499 36.7C45.8186 37.6625 46.0561 38.3 45.8499 39.3C45.4124 41.4562 44.7499 43.25 44.7499 43.25L38.5499 55.2C38.2124 55.85 37.9499 56.5437 37.7999 57.25L35.5499 68.1C34.9311 71.0375 37.1999 73.9 40.1999 73.9H40.6999C42.9624 73.9 44.9499 72.2625 45.3999 70.05L47.4999 59.7L52.8499 50.1L57.1999 55.75L58.7499 69.65C59.0186 72.0562 61.0811 73.9 63.4999 73.9C66.3061 73.9 68.5374 71.3937 68.2499 68.6L66.7499 53.8C66.6561 52.9 66.3874 52.0187 65.9999 51.2L61.4499 41.6C61.7936 40.65 63.4999 35.5375 62.8999 29.8L70.3999 17.15C70.4624 17.0375 70.5124 16.925 70.5499 16.8L73.3999 6.84996C74.1249 4.32496 72.5999 1.68746 70.0499 1.04996C69.7436 0.974958 69.4061 0.912459 69.0999 0.899958ZM27.7999 1.39996C27.2124 1.41246 26.6124 1.53746 26.0499 1.79996C23.9436 2.77496 22.9374 5.24371 23.7999 7.39996L26.5999 14.5L22.0499 22.6L14.3999 23.65L9.59989 18.15L9.84989 15.95C10.1374 19.65 13.2311 22.6 16.9999 22.6C20.9561 22.6 24.1999 19.3562 24.1999 15.4C24.1999 11.4437 20.9561 8.19996 16.9999 8.19996C13.8124 8.19996 11.0874 10.3125 10.1499 13.2L10.5999 9.44996C10.8936 6.94996 8.96239 4.68121 6.44989 4.54996H6.09989C3.78739 4.43121 1.74364 6.14371 1.49988 8.44996L0.349885 19.2C0.187386 20.7125 0.631135 22.1875 1.54989 23.4L9.29989 33.65L6.49989 39.85C5.36239 42.3562 4.91239 45.1125 5.19989 47.85L7.44989 69.35C7.71239 71.85 9.83739 73.8 12.3499 73.8C15.2124 73.8 17.4874 71.3062 17.2499 68.45L15.6499 49.2L15.8499 49.05L20.8499 56.05L18.2999 68C17.6624 70.9562 19.9749 73.8 22.9999 73.8C25.1749 73.8 27.0561 72.3125 27.5999 70.2L30.9999 57.15C31.3999 55.6 31.1999 53.9687 30.4499 52.55L25.0999 42.4L27.6499 31L35.3499 18.1C36.1811 16.7062 36.3561 15.0062 35.7499 13.5L31.9499 4.14996C31.4874 2.99371 30.5811 2.12496 29.4999 1.69996C28.9624 1.48746 28.3874 1.38746 27.7999 1.39996ZM68.6499 4.09996C68.8374 4.07496 69.0499 4.09996 69.2499 4.14996C70.0811 4.35621 70.5374 5.17496 70.2999 5.99996L67.4499 15.9L59.9499 28.55C59.7499 28.8625 59.6561 29.2312 59.6999 29.6C60.4499 34.95 58.2499 41.2 58.2499 41.2C58.0936 41.6062 58.1124 42.0562 58.2999 42.45L63.0999 52.55C63.3311 53.0437 63.4936 53.6062 63.5499 54.15L65.0499 68.95C65.1499 69.9062 64.4624 70.7 63.4999 70.7C62.6811 70.7 62.0436 70.1125 61.9499 69.3L60.2999 54.9C60.2749 54.6125 60.1686 54.3375 59.9999 54.1L53.9499 46.25C53.6311 45.8062 53.1061 45.55 52.5561 45.5812C52.0124 45.6125 51.5186 45.9187 51.2499 46.4L44.5999 58.3C44.5249 58.4437 44.4749 58.5937 44.4499 58.75L42.2499 69.4C42.0999 70.1437 41.4561 70.7 40.6999 70.7H40.1999C39.1624 70.7 38.4374 69.8187 38.6499 68.8L40.9499 57.9C41.0436 57.4687 41.1999 57.0312 41.3999 56.65L47.6999 44.5C47.7374 44.4375 47.7686 44.3687 47.7999 44.3C47.7999 44.3 48.5124 42.3562 48.9999 39.95C49.4874 37.5437 49.9499 34.7312 48.7999 32.35C48.5749 31.8875 48.1436 31.5625 47.6374 31.475C47.1374 31.3875 46.6186 31.5437 46.2499 31.9L39.7999 38.2C39.6061 38.3937 39.4686 38.6375 39.3999 38.9L36.9999 46.8C36.8186 47.4062 36.2061 47.7187 35.5999 47.55C34.9874 47.3812 34.6811 46.7687 34.8499 46.15L37.0999 37.65C37.2936 36.925 37.6436 36.2625 38.1499 35.7L44.7999 28.35C44.7999 28.3312 44.7999 28.3187 44.7999 28.3C45.4561 27.5625 46.3311 27.0687 47.2999 26.85L57.4499 24.55C57.8561 24.4687 58.2124 24.2375 58.4499 23.9L64.9499 14.5C65.0686 14.3312 65.1499 14.15 65.1999 13.95L67.4499 5.19996C67.6061 4.59371 68.0811 4.18121 68.6499 4.09996ZM27.8999 4.59996C28.3749 4.58746 28.7999 4.86246 28.9999 5.34996L32.7499 14.7C32.9811 15.2812 32.9186 15.9125 32.5999 16.45L24.7499 29.6C24.6624 29.7375 24.5936 29.8875 24.5499 30.05L21.7999 42.25C21.7186 42.625 21.7686 43.0125 21.9499 43.35L27.6499 54.05C28.0249 54.7562 28.0999 55.575 27.8999 56.35L24.4999 69.4C24.3124 70.1125 23.7374 70.6 22.9999 70.6C21.9436 70.6 21.1749 69.6812 21.3999 68.65L24.1499 56.05C24.2436 55.6187 24.1499 55.1625 23.8999 54.8L17.4999 45.85C17.2499 45.5 16.8686 45.2687 16.4499 45.2062C16.0249 45.1375 15.5936 45.2437 15.2499 45.5L12.9999 47.25C12.5749 47.5875 12.3499 48.1125 12.3999 48.65L14.0999 68.7C14.1874 69.7375 13.3874 70.6 12.3499 70.6C11.4499 70.6 10.6936 69.95 10.5999 69.05L8.39989 47.5C8.17489 45.325 8.49364 43.1375 9.39989 41.15L12.5999 34.1C12.8436 33.5812 12.7811 32.9687 12.4499 32.5L4.09989 21.5C3.67489 20.9375 3.47488 20.2 3.54989 19.5L4.69989 8.79996C4.76864 8.15621 5.25613 7.71871 5.89989 7.74996H6.29989C7.01239 7.78746 7.48113 8.39371 7.39989 9.09996L6.29989 18.45C6.24989 18.9062 6.39364 19.3625 6.69989 19.7L12.5999 26.4C12.9561 26.8187 13.5061 27.0312 14.0499 26.95L23.2999 25.65C23.7874 25.575 24.2124 25.2812 24.4499 24.85L29.7999 15.35C30.0311 14.9375 30.0686 14.4437 29.8999 14L26.7999 6.19996C26.5561 5.59371 26.8124 4.97496 27.3999 4.69996C27.5561 4.62496 27.7436 4.60621 27.8999 4.59996ZM48.9999 8.19996C45.0436 8.19996 41.7999 11.4437 41.7999 15.4C41.7999 19.3562 45.0436 22.6 48.9999 22.6C52.9561 22.6 56.1999 19.3562 56.1999 15.4C56.1999 11.4437 52.9561 8.19996 48.9999 8.19996ZM16.9999 11.4C19.2249 11.4 20.9999 13.175 20.9999 15.4C20.9999 17.625 19.2249 19.4 16.9999 19.4C14.7749 19.4 12.9999 17.625 12.9999 15.4C12.9999 13.175 14.7749 11.4 16.9999 11.4ZM48.9999 11.4C51.2249 11.4 52.9999 13.175 52.9999 15.4C52.9999 17.625 51.2249 19.4 48.9999 19.4C46.7749 19.4 44.9999 17.625 44.9999 15.4C44.9999 13.175 46.7749 11.4 48.9999 11.4Z"/>
	</symbol>

	<symbol id="advantage-target-iron" viewBox="0 0 80 80" >
		<path d="M39.9999 0.439941C18.1869 0.439941 0.439941 18.1869 0.439941 39.9999C0.439941 61.813 18.1869 79.5599 39.9999 79.5599C61.813 79.5599 79.5599 61.813 79.5599 39.9999C79.5599 32.0931 77.2201 24.7255 73.2074 18.5369L71.6721 20.0721L70.6912 21.0531C74.1105 26.5691 76.1199 33.046 76.1199 39.9999C76.1199 59.9175 59.9175 76.1199 39.9999 76.1199C20.0823 76.1199 3.87994 59.9175 3.87994 39.9999C3.87994 20.0823 20.0823 3.87994 39.9999 3.87994C48.4509 3.87994 56.2029 6.83394 62.3599 11.7174V15.2078L58.1708 19.3969C53.3198 15.1071 46.9692 12.4799 39.9999 12.4799C24.8261 12.4799 12.4799 24.8261 12.4799 39.9999C12.4799 55.1738 24.8261 67.5199 39.9999 67.5199C55.1738 67.5199 67.5199 55.1738 67.5199 39.9999C67.5199 34.2741 65.7578 28.9518 62.753 24.5435L60.2603 27.0361C62.6649 30.784 64.0799 35.2252 64.0799 39.9999C64.0799 53.2783 53.2783 64.0799 39.9999 64.0799C26.7215 64.0799 15.9199 53.2783 15.9199 39.9999C15.9199 26.7215 26.7215 15.9199 39.9999 15.9199C46.0222 15.9199 51.5155 18.1589 55.7386 21.8291L49.638 27.9297C46.9915 25.807 43.649 24.5199 39.9999 24.5199C31.4653 24.5199 24.5199 31.4653 24.5199 39.9999C24.5199 48.5346 31.4653 55.4799 39.9999 55.4799C48.5346 55.4799 55.4799 48.5346 55.4799 39.9999C55.4799 37.6143 54.9214 35.3643 53.9548 33.345L51.3311 35.9653C51.7817 37.2278 52.0399 38.5844 52.0399 39.9999C52.0399 46.6391 46.6391 52.0399 39.9999 52.0399C33.3607 52.0399 27.9599 46.6391 27.9599 39.9999C27.9599 33.3607 33.3607 27.9599 39.9999 27.9599C42.7003 27.9599 45.186 28.8647 47.1957 30.372L40.8868 36.6809C40.5977 36.6021 40.2996 36.5615 39.9999 36.5599C39.0876 36.5599 38.2126 36.9224 37.5675 37.5675C36.9224 38.2126 36.5599 39.0876 36.5599 39.9999C36.5599 40.9123 36.9224 41.7873 37.5675 42.4324C38.2126 43.0775 39.0876 43.4399 39.9999 43.4399C40.9123 43.4399 41.7873 43.0775 42.4324 42.4324C43.0775 41.7873 43.4399 40.9123 43.4399 39.9999C43.4398 39.6993 43.4003 39.4 43.3224 39.1097L64.7921 17.6399H69.2399L77.8399 9.03994H70.9599V2.15994L64.2983 8.82158C57.5867 3.57781 49.1578 0.439941 39.9999 0.439941Z">
	</symbol>

</svg> 

