<svg xmlns="http://www.w3.org/2000/svg">

	<symbol id="nav-phone" viewBox="0 0 27 27">
		<path d="M15.693 0.178119C15.5458 0.189447 15.4008 0.209838 15.258 0.250619L5.03553 3.15062C3.88686 3.47687 3.20491 4.68445 3.53116 5.83312L8.31616 22.6531C8.32522 22.7098 8.34335 22.7641 8.37053 22.8162L9.05928 25.2631C9.38553 26.4118 10.5931 27.0756 11.7418 26.7494L21.9643 23.8494C23.113 23.5231 23.7949 22.3155 23.4687 21.1669L22.798 18.8106C22.8071 18.6747 22.7686 18.541 22.6893 18.43L17.9405 1.73687C17.6958 0.875932 16.9686 0.284604 16.128 0.178119C15.9876 0.159994 15.8403 0.166791 15.693 0.178119ZM15.7837 1.31999C16.2572 1.28374 16.699 1.58734 16.8349 2.06312L21.4568 18.3756L9.27678 21.8194L4.65491 5.50687C4.50085 4.96085 4.81577 4.41031 5.36178 4.25624L15.5843 1.35624C15.6523 1.33585 15.7157 1.32453 15.7837 1.31999ZM21.1487 5.18062C20.981 5.20781 20.8337 5.30976 20.7454 5.45703C20.6593 5.60203 20.6389 5.78101 20.6955 5.94187L23.5955 16.1644C23.6862 16.4748 24.0101 16.6537 24.3205 16.5631C24.6309 16.4725 24.8099 16.1485 24.7193 15.8381L21.8193 5.61562C21.7536 5.3596 21.5225 5.18062 21.2574 5.18062C21.2393 5.18062 21.2212 5.18062 21.203 5.18062C21.1849 5.18062 21.1668 5.18062 21.1487 5.18062ZM24.4293 7.01124C24.2616 7.03843 24.1144 7.14038 24.026 7.28765C23.9399 7.43265 23.9195 7.61163 23.9762 7.77249L25.4262 12.8837C25.5168 13.1941 25.8408 13.3731 26.1512 13.2825C26.4615 13.1919 26.6405 12.8679 26.5499 12.5575L25.0999 7.44624C25.0342 7.19023 24.8031 7.01124 24.538 7.01124C24.5199 7.01124 24.5018 7.01124 24.4837 7.01124C24.4655 7.01124 24.4474 7.01124 24.4293 7.01124ZM2.78803 10.4006C2.76991 10.4052 2.75178 10.4119 2.73366 10.4187C2.57053 10.4482 2.42553 10.5456 2.33944 10.6884C2.25335 10.8311 2.23069 11.0033 2.28053 11.1619L5.18053 21.3844C5.27116 21.6948 5.59514 21.8737 5.90553 21.7831C6.21592 21.6925 6.39491 21.3685 6.30428 21.0581L3.40428 10.8356C3.33858 10.5796 3.10749 10.4006 2.84241 10.4006C2.82428 10.4006 2.80616 10.4006 2.78803 10.4006ZM0.957409 13.6812C0.939284 13.6858 0.921159 13.6926 0.903034 13.6994C0.739909 13.7288 0.594909 13.8262 0.508816 13.969C0.422722 14.1117 0.400066 14.2839 0.449909 14.4425L1.89991 19.5537C1.99053 19.8641 2.31452 20.0431 2.62491 19.9525C2.9353 19.8619 3.11428 19.5379 3.02366 19.2275L1.57366 14.1162C1.50796 13.8602 1.27686 13.6812 1.01178 13.6812C0.993659 13.6812 0.975534 13.6812 0.957409 13.6812ZM21.783 19.4994L22.3449 21.4931C22.499 22.0391 22.184 22.5897 21.638 22.7437L11.4155 25.6437C10.8695 25.7978 10.319 25.4829 10.1649 24.9369L9.60303 22.9431L21.783 19.4994ZM16.0555 21.91C16.0034 21.9145 15.9445 21.9123 15.8924 21.9281C15.4687 22.0482 15.2286 22.5013 15.3487 22.925C15.4687 23.3487 15.9037 23.5888 16.3274 23.4687C16.7511 23.3487 16.9912 22.9137 16.8712 22.49C16.7669 22.1184 16.4248 21.8828 16.0555 21.91Z" />
	</symbol>

	<symbol id="nav-map" viewBox="0 0 20 30">
		<path d="M9.99998 0.719971C4.73879 0.719971 0.47998 4.97879 0.47998 10.24C0.47998 14.5975 2.76132 19.2525 5.00225 22.8638C7.24317 26.4751 9.48732 29.0475 9.48732 29.0475C9.55155 29.1211 9.63086 29.18 9.71988 29.2202C9.8089 29.2604 9.90552 29.2809 10.0032 29.2804C10.1009 29.2799 10.1973 29.2584 10.2859 29.2173C10.3745 29.1762 10.4532 29.1165 10.5166 29.0422C10.5166 29.0422 12.7593 26.4206 14.999 22.7854C17.2387 19.1502 19.52 14.5017 19.52 10.24C19.52 4.97879 15.2612 0.719971 9.99998 0.719971ZM9.99998 2.07997C14.5308 2.07997 18.16 5.70916 18.16 10.24C18.16 14.0023 16.0212 18.5334 13.8409 22.0722C12.0709 24.9452 10.5988 26.7788 9.996 27.5122C9.39004 26.7879 7.92293 24.9913 6.15771 22.1466C3.97864 18.6349 1.83998 14.1104 1.83998 10.24C1.83998 5.70916 5.46917 2.07997 9.99998 2.07997ZM9.99998 5.47997C7.38507 5.47997 5.23998 7.62506 5.23998 10.24C5.23998 12.8549 7.38507 15 9.99998 15C12.6149 15 14.76 12.8549 14.76 10.24C14.76 7.62506 12.6149 5.47997 9.99998 5.47997ZM9.99998 6.83997C11.8731 6.83997 13.4 8.36688 13.4 10.24C13.4 12.1131 11.8731 13.64 9.99998 13.64C8.12689 13.64 6.59998 12.1131 6.59998 10.24C6.59998 8.36688 8.12689 6.83997 9.99998 6.83997Z" />
	</symbol>

	<symbol id="nav-calendar" viewBox="0 0 26 27">
		<path d="M5.72012 0C5.42767 0 5.12954 0.107144 4.9184 0.318281C4.70726 0.529418 4.60012 0.827556 4.60012 1.12V2.24H1.24012C0.947673 2.24 0.649535 2.34714 0.438398 2.55828C0.227261 2.76942 0.120117 3.06756 0.120117 3.36V7.84V25.76C0.120117 26.0524 0.227261 26.3506 0.438398 26.5617C0.649535 26.7729 0.947673 26.88 1.24012 26.88H24.7601C25.0526 26.88 25.3507 26.7729 25.5618 26.5617C25.773 26.3506 25.8801 26.0524 25.8801 25.76V7.84V3.36C25.8801 3.06756 25.773 2.76942 25.5618 2.55828C25.3507 2.34714 25.0526 2.24 24.7601 2.24H21.4001V1.12C21.4001 0.827556 21.293 0.529418 21.0818 0.318281C20.8707 0.107144 20.5726 0 20.2801 0H19.1601C18.8677 0 18.5695 0.107144 18.3584 0.318281C18.1473 0.529418 18.0401 0.827556 18.0401 1.12V2.24H7.96012V1.12C7.96012 0.827556 7.85297 0.529418 7.64184 0.318281C7.4307 0.107144 7.13256 0 6.84012 0H5.72012ZM5.72012 1.12H6.84012V4.48H5.72012V1.12ZM19.1601 1.12H20.2801V2.70594C20.2701 2.76641 20.2701 2.82812 20.2801 2.88859V4.48H19.1601V1.12ZM1.24012 3.36H4.60012V4.48C4.60012 4.77244 4.70726 5.07058 4.9184 5.28172C5.12954 5.49286 5.42767 5.6 5.72012 5.6H6.84012C7.13256 5.6 7.4307 5.49286 7.64184 5.28172C7.85297 5.07058 7.96012 4.77244 7.96012 4.48V3.36H18.0401V4.48C18.0401 4.77244 18.1473 5.07058 18.3584 5.28172C18.5695 5.49286 18.8677 5.6 19.1601 5.6H20.2801C20.5726 5.6 20.8707 5.49286 21.0818 5.28172C21.293 5.07058 21.4001 4.77244 21.4001 4.48V3.36H24.7601V7.28H1.24012V3.36ZM1.24012 8.4H24.7601V25.76H1.24012V8.4ZM9.07137 10.6323C9.0446 10.633 9.01792 10.6355 8.99152 10.64H5.16012C5.0116 10.64 4.86917 10.699 4.76415 10.804C4.65914 10.9091 4.60013 11.0515 4.60012 11.2V15.0259C4.59012 15.0864 4.59012 15.1481 4.60012 15.2086V18.9459C4.59012 19.0064 4.59012 19.0681 4.60012 19.1286V22.96C4.60013 23.1085 4.65914 23.2509 4.76415 23.356C4.86917 23.461 5.0116 23.52 5.16012 23.52H8.98605C9.04653 23.53 9.10823 23.53 9.16871 23.52H12.9061C12.9665 23.53 13.0282 23.53 13.0887 23.52H15.8001H16.8261C16.8865 23.53 16.9482 23.53 17.0087 23.52H20.8401C20.9886 23.52 21.1311 23.461 21.2361 23.356C21.3411 23.2509 21.4001 23.1085 21.4001 22.96V19.1341C21.4101 19.0736 21.4101 19.0119 21.4001 18.9514V15.2141C21.4101 15.1536 21.4101 15.0919 21.4001 15.0314V11.2C21.4001 11.0515 21.3411 10.9091 21.2361 10.804C21.1311 10.699 20.9886 10.64 20.8401 10.64H17.0142C16.9537 10.63 16.892 10.63 16.8315 10.64H13.0942C13.0337 10.63 12.972 10.63 12.9115 10.64H9.17418C9.14022 10.6343 9.1058 10.6317 9.07137 10.6323ZM5.72012 11.76H8.52012V14.56H5.72012V11.76ZM9.64012 11.76H12.4401V14.56H9.64012V11.76ZM13.5601 11.76H16.3601V14.56H13.5601V11.76ZM17.4801 11.76H20.2801V14.56H17.4801V11.76ZM5.72012 15.68H8.52012V18.48H5.72012V15.68ZM9.64012 15.68H12.4401V18.48H9.64012V15.68ZM13.5601 15.68H16.3601V18.48H13.5601V15.68ZM17.4801 15.68H20.2801V18.48H17.4801V15.68ZM5.72012 19.6H8.52012V22.4H5.72012V19.6ZM9.64012 19.6H12.4401V22.4H9.64012V19.6ZM13.5601 19.6H16.3601V22.4H15.8001H13.5601V19.6ZM17.4801 19.6H20.2801V22.4H17.4801V19.6Z"/>
	</symbol>

	<symbol id="nav-calendar" viewBox="0 0 29 27">
		<path d="M26.3467 0.648447C25.9674 0.665178 25.6141 0.775641 25.3031 0.901377C25.0117 1.01858 23.8984 1.49607 22.1449 2.24806C20.3898 3.0007 18.0659 3.99842 15.5869 5.06446C10.629 7.19655 5.05491 9.59654 2.19987 10.8249C2.09251 10.8711 1.71791 10.9907 1.32031 11.3011C0.922717 11.6115 0.5 12.2547 0.5 12.9714C0.5 13.5493 0.775412 14.1234 1.12207 14.4662C1.46873 14.8089 1.83554 14.9783 2.14974 15.1065C3.28977 15.5716 6.82549 17.0185 7.49316 17.2917C7.72814 18.0115 9.00791 21.9263 9.30469 22.8858C9.50033 23.5189 9.68656 23.9154 9.92904 24.2302C10.0503 24.3875 10.1912 24.5254 10.362 24.6335C10.4302 24.6767 10.5051 24.7099 10.5807 24.7406L10.5853 24.7428C10.6027 24.7498 10.6177 24.7617 10.6354 24.7679C10.6688 24.7796 10.6911 24.781 10.7357 24.7907C10.9134 24.8481 11.0928 24.8841 11.2529 24.8841C11.9356 24.8841 12.3535 24.5081 12.3535 24.5081L12.3786 24.4899L15.89 21.4525L20.1488 25.4811C20.2087 25.5659 20.768 26.3333 22.0013 26.3333C22.7336 26.3333 23.3145 25.9659 23.6875 25.5746C24.0605 25.1832 24.2928 24.7721 24.3916 24.2552V24.2529C24.484 23.7645 28.4089 3.61524 28.4089 3.61524L28.402 3.64259C28.5169 3.11816 28.547 2.62976 28.4202 2.1478C28.2935 1.66584 27.9594 1.20438 27.5452 0.956064C27.1311 0.707802 26.7259 0.631716 26.3467 0.648447ZM26.1279 3.0866C26.1223 3.12065 26.1321 3.10353 26.1234 3.14356L26.1211 3.15724L26.1188 3.17091C26.1188 3.17091 22.2426 23.0624 22.0993 23.82C22.1098 23.7628 22.0618 23.8765 22.0127 23.9453C21.9432 23.8974 21.8008 23.8359 21.8008 23.8359L21.778 23.8109L15.9606 18.308L11.8477 21.8626L13.0713 16.9636C13.0713 16.9636 20.7202 9.0458 21.181 8.58497C21.552 8.2163 21.6299 8.08779 21.6299 7.96062C21.6299 7.79029 21.5411 7.66668 21.3428 7.66668C21.1643 7.66668 20.9242 7.84022 20.7959 7.92188C19.1239 8.98769 11.7838 13.2657 8.49349 15.1794C7.97061 14.9654 4.33794 13.4784 3.10677 12.9759C3.11609 12.9718 3.11302 12.9733 3.12272 12.9691C5.97851 11.7404 11.5502 9.34045 16.5075 7.20867C18.9861 6.14278 21.3118 5.14429 23.0654 4.39226C24.7921 3.65181 25.9918 3.14221 26.1279 3.0866Z"/>
	</symbol>

</svg> 

